<?xml version="1.0" encoding="utf-8"?>
<!-- Generator: Adobe Illustrator 16.0.3, SVG Export Plug-In . SVG Version: 6.00 Build 0)  -->
<!DOCTYPE svg PUBLIC "-//W3C//DTD SVG 1.1//EN" "http://www.w3.org/Graphics/SVG/1.1/DTD/svg11.dtd">
<svg version="1.1" id="Layer_1" xmlns="http://www.w3.org/2000/svg" xmlns:xlink="http://www.w3.org/1999/xlink" x="0px" y="0px"
	 width="311.811px" height="850.394px" viewBox="0 0 311.811 850.394" enable-background="new 0 0 311.811 850.394"
	 xml:space="preserve">
<g>
	<path fill="#FDD60B" d="M120.678,724.287c4.419,0,9.244-1.322,11.755-5.25c2.522-3.947,2.077-9.146,0.547-13.363
		c-1.661-4.578-4.557-8.654-7.707-12.324c-3.229-3.764-6.854-7.184-10.638-10.383c4.717,1.395,10.663,1.801,14.627-1.646
		c4.335-3.766,4.272-10.377,3.21-15.541c-2.376-11.524-10.239-21.729-18.229-30.034c5.881,3.707,11.769,7.405,17.667,11.082
		c0-2.181,0-4.355,0-6.533c0-0.539,0-1.078,0-1.617c0-0.24,0-0.482,0-0.723c0-0.705-0.385-0.646-1.033-0.927
		c-2.881-1.239-5.685-2.668-8.397-4.235c-2.631-1.523-5.195-3.185-7.594-5.056c-2.494-1.94-4.794-4.157-7.103-6.317
		c-4.521-4.232-8.905-8.623-13.013-13.263c-1.447-1.635-2.859-3.301-4.221-5.01c-0.686-0.856-1.355-1.729-2.012-2.606
		c-0.268-0.361-1.803-2.064-1.67-2.427c0.172-0.467,0.681-0.016,0.929,0.105c0.722,0.35,1.481,0.615,2.26,0.813
		c1.831,0.466,3.755,0.537,5.618,0.229c4.331-0.711,7.533-3.801,8.168-8.176c0.646-4.48-1.239-8.74-3.79-12.313
		c10.577,6.769,21.195,13.467,31.855,20.103c0-2.179,0-4.354,0-6.531c0-0.539,0-1.078,0-1.617c0-0.24,0-0.482,0-0.723
		c0-0.705-0.385-0.646-1.033-0.925c-2.881-1.241-5.684-2.666-8.397-4.237c-2.631-1.521-5.196-3.183-7.594-5.054
		c-2.493-1.944-4.794-4.159-7.103-6.319c-4.521-4.232-8.905-8.623-13.013-13.26c-1.447-1.636-2.859-3.304-4.221-5.011
		c-0.686-0.858-1.354-1.729-2.012-2.61c-0.267-0.359-1.804-2.066-1.67-2.425c0.173-0.463,0.682-0.014,0.927,0.105
		c0.724,0.35,1.483,0.615,2.262,0.813c1.831,0.466,3.755,0.537,5.618,0.229c4.33-0.711,7.533-3.801,8.168-8.176
		c0.606-4.201-1.021-8.23-3.333-11.658c4.79,3.727,10.318,6.957,16.321,8.19c5.495,1.132,12.001,0.265,14.777-5.245
		c2.714-5.386,1.349-12.248-0.623-17.642c-2.117-5.787-5.412-11.113-9.12-16.008c-1.974-2.605-4.091-5.1-6.313-7.494
		c5.408,3.49,10.845,6.945,16.355,10.271c0-2.076,0-4.154,0-6.23c0-0.516,0-1.029,0-1.545c0-0.229,0-0.459,0-0.688
		c0-0.61-0.218-0.567-0.774-0.854c-2.579-1.311-5.063-2.811-7.501-4.363c-10.726-6.834-21.039-14.836-29.821-24.055
		c-4.071-4.273-8.445-9.205-10.27-14.938c-0.686-2.158-1.294-5.755,1.036-7.195c2.214-1.371,5.449,0.238,7.442,1.324
		c5.505,2.996,10.233,7.373,15.129,11.235c2.446,1.933,4.933,3.826,7.571,5.49c2.538,1.6,5.349,3.137,8.36,3.555
		c3.188,0.443,6.446-0.717,8.282-3.438c1.815-2.691,2.021-6.207,1.332-9.301c-1.491-6.695-6.474-12.394-11.101-17.205
		c13.603-2.287,12.517-19.749,9.439-29.645c-3.688-11.871-11.9-21.82-21.141-29.881c-4.741-4.137-9.841-7.855-15.146-11.238
		c-0.091,0.185-0.297,0.449-0.322,0.648c-0.055,0.383,0.095,0.346,0.504,0.613c0.617,0.404,1.231,0.813,1.845,1.229
		c2.483,1.687,4.907,3.461,7.261,5.324c4.722,3.735,9.172,7.832,13.154,12.351c3.92,4.444,7.403,9.319,10.021,14.649
		c1.308,2.66,2.394,5.432,3.188,8.289c0.395,1.422,0.717,2.863,0.958,4.315c0.096,0.571,0.587,1.729-0.027,2.116
		c-1.092-5.695-5.556-11.159-10.973-13.27c-5.501-2.144-11.561,0.135-16.613,2.451c-5.1,2.34-11.793,5.793-17.256,2.448
		c-4.62-2.825-5.063-11.31,0.524-13.354c3.35-1.223,7.609,0.096,10.617,1.707c0-2.65-0.749-5.57-2.771-7.418
		c-2.05-1.883-5.18-2.092-7.663-0.988c-5.53,2.453-6.545,10.044-5.763,15.33c0.848,5.767,4.456,11.291,10.42,12.617
		c0.716,0.16,1.444,0.256,2.178,0.293c0.593,0.381,1.178,0.772,1.757,1.174c1.269,0.873,2.512,1.781,3.738,2.707
		c2.47,1.857,4.887,3.787,7.267,5.76c0.704,0.586,2.448,1.533,2.374,2.475c-0.088,1.112,0.094,2.272,0.455,3.323
		c0.989,2.869,3.494,4.955,6.367,5.785c1.113,0.322,2.273,0.459,3.432,0.4c1.028-0.051,2.133,1.723,2.808,2.473
		c2.068,2.299,4.04,4.709,5.683,7.334c1.548,2.476,2.828,5.189,3.261,8.101c0.345,2.297,0.319,5.272-2.403,5.981
		c-2.583,0.674-5.165-0.848-7.299-2.137c-2.573-1.553-5.002-3.346-7.406-5.146c-5.025-3.762-9.923-7.754-15.262-11.071
		c-4.524-2.813-11.019-5.933-15.396-1.035c-4.164,4.654-1.757,11.934,0.972,16.647c3.075,5.313,7.428,9.845,11.887,14.011
		c4.094,3.825,8.447,7.348,12.746,10.938c-0.415,0.687-1.746-0.764-2.175-1.067c-0.784-0.568-1.57-1.138-2.356-1.703
		c-1.876-1.354-3.752-2.705-5.629-4.062c-3.405-2.455-6.812-4.914-10.215-7.367c-2.091-1.51-4.18-3.016-6.268-4.521
		c0.102,2.178,0.199,4.354,0.302,6.533c0.024,0.541,0.052,1.08,0.074,1.619c0.012,0.237,0.022,0.479,0.033,0.721
		c0.031,0.676,0.381,0.703,0.97,1.059c2.649,1.601,5.271,3.244,7.882,4.906c5.31,3.375,10.567,6.824,15.839,10.258
		c1.329,0.865,2.454,1.728,3.576,2.851c1.139,1.135,2.248,2.297,3.333,3.483c2.133,2.332,4.16,4.76,6.062,7.285
		c3.687,4.902,7.095,10.262,9.063,16.107c0.875,2.596,1.746,5.77,1.029,8.5c-0.727,2.766-3.273,4.278-5.911,4.87
		c-5.604,1.255-12.105-0.586-17.05-3.247c-1.278-5.99-3.2-11.882-5.565-17.527c-2.239-5.35-4.94-11.139-9.233-15.17
		c-2.031-1.906-4.752-3.377-7.584-2.433c-2.675,0.894-3.748,3.699-3.935,6.3c-0.441,6.207,2.384,12.45,5.634,17.567
		c1.633,2.572,3.493,4.998,5.521,7.271c1.996,2.242,4.209,4.215,5.995,6.641c3.007,4.086,6.828,12.389-0.229,14.746
		c-6.195,2.07-12.529-2.465-16.668-6.602c-0.256,3.147-1.36,7.901,1.895,9.823c0.448,0.267,0.895,0.408,1.193,0.845
		c0.274,0.401,0.557,0.805,0.841,1.202c0.652,0.925,1.324,1.836,2.009,2.738c1.335,1.76,2.718,3.484,4.136,5.18
		c5.395,6.443,11.233,12.729,17.726,18.086c-0.417,0.677-1.76-0.721-2.195-1.021c-0.795-0.545-1.589-1.09-2.384-1.637
		c-1.896-1.302-3.794-2.604-5.69-3.906c-3.439-2.363-6.884-4.725-10.326-7.088c-2.109-1.449-4.223-2.9-6.334-4.351
		c0,2.045,0,4.089,0,6.132c0,0.506,0,1.014,0,1.52c0,0.229,0,0.451,0,0.68c0,0.652,0.381,0.705,0.935,1.066
		c2.58,1.688,5.164,3.365,7.753,5.039c1.233,0.799,2.471,1.596,3.708,2.395c0.616,0.396,1.231,0.795,1.851,1.189
		c0.778,0.5,1.256,1.188,1.801,1.93c1.729,2.357,3.285,5.015,3.72,7.947c0.395,2.672-0.528,5.148-3.035,6.4
		c-2.533,1.266-5.667,0.977-8.272,0.098c-3.6-1.213-6.667-3.664-9.318-6.316c-0.257,3.146-1.363,7.904,1.893,9.826
		c0.447,0.269,0.896,0.408,1.193,0.847c0.274,0.399,0.557,0.805,0.841,1.202c0.653,0.923,1.325,1.834,2.009,2.734
		c1.335,1.76,2.718,3.484,4.136,5.178c5.395,6.445,11.233,12.73,17.726,18.091c-0.417,0.676-1.759-0.724-2.195-1.021
		c-0.795-0.545-1.589-1.09-2.384-1.637c-1.896-1.302-3.794-2.605-5.69-3.906c-3.439-2.363-6.884-4.725-10.326-7.088
		c-2.109-1.449-4.223-2.9-6.334-4.351c0,2.046,0,4.089,0,6.132c0,0.506,0,1.014,0,1.52c0,0.227,0,0.451,0,0.678
		c0,0.664,0.41,0.728,0.971,1.092c2.681,1.755,5.362,3.5,8.054,5.24c5.319,3.441,10.656,6.857,16.004,10.256
		c1.279,0.813,2.341,1.998,3.414,3.063c1.175,1.168,2.322,2.361,3.441,3.58c2.162,2.358,4.222,4.815,6.146,7.375
		c3.647,4.846,7.011,10.129,9.009,15.889c0.902,2.604,1.785,5.74,1.192,8.504c-0.599,2.791-3.023,4.416-5.65,5.074
		c-5.582,1.4-12.123-0.42-17.095-3.021c-0.518-0.27-0.522-1.243-0.655-1.801c-0.166-0.701-0.342-1.397-0.523-2.096
		c-0.409-1.559-0.859-3.105-1.343-4.643c-0.935-2.979-1.989-5.914-3.185-8.8c-2.229-5.381-4.906-11.145-9.13-15.271
		c-1.997-1.951-4.65-3.539-7.533-2.76c-2.732,0.735-3.95,3.444-4.204,6.057c-0.583,6.006,2.086,12.15,5.146,17.16
		c1.604,2.629,3.455,5.104,5.474,7.43c0.561,0.643,1.701,1.549,1.888,2.277c0.095,0.367-0.493,0.225,0.064,0.561
		c2.548,1.529,4.579,3.73,6.937,5.545c2.404,1.846,4.956,3.512,7.654,4.898c0.616,0.313,1.311,0.559,1.853,0.992
		c0.586,0.469,1.168,0.94,1.745,1.422c1.241,1.024,2.467,2.076,3.667,3.147c2.317,2.074,4.558,4.24,6.663,6.527
		c3.969,4.311,8.246,9.541,9.334,15.467c0.228,1.236,0.417,2.646-0.194,3.803c-0.636,1.201-1.879,1.957-3.109,2.435
		c-2.623,1.012-5.519,0.93-8.271,0.686c-5.996-0.526-11.865-2.244-17.479-4.361c-5.884-2.219-11.567-4.956-17.071-7.993
		c-11.063-6.104-21.54-13.41-31.048-21.736c-4.632-4.055-9.063-8.381-12.99-13.131c-3.591-4.344-7.37-9.445-8.471-15.097
		c-0.553-2.842-0.003-5.168,2.313-7.024c1.984-1.592,5.513-2.963,5.513-5.969c0-2.722-2.418-4.734-5.063-4.603
		c-3.106,0.156-5.307,2.746-6.099,5.582c-0.818,2.935-0.261,6.35,0.344,9.279c0.628,3.043,1.636,6.002,2.885,8.846
		c2.517,5.73,5.983,11.019,9.835,15.935c7.837,10.008,17.336,18.715,27.354,26.489c2.447,1.9,4.938,3.742,7.476,5.523
		c1.147,0.809,2.308,1.604,3.476,2.383c0.263,0.176,0.835,0.365,0.835,0.713c0,0.379,0,0.758,0,1.139c0,2.16,0,4.32,0,6.48
		c0,4.32,0,8.641,0,12.961c-10.712-6.291-21.271-13.057-30.773-21.09c-4.646-3.928-9.089-8.199-12.736-13.084
		c-3.649-4.885-6.63-10.646-6.745-16.867c-0.025-1.338,0.013-2.676-0.055-4.012c-0.059-1.115-0.071-2.803-1.093-3.527
		c-1.068-0.76-2.313-0.164-2.538,1.078c-0.242,1.352,0.142,2.811,0.487,4.111c0.764,2.854,1.461,5.58,1.465,8.561
		c0.005,3.275,0.059,6.553,0.16,9.828c0.41,12.992,1.553,26.016,4.001,38.791c2.268,11.814,5.535,24.143,12.268,34.273
		c3.086,4.645,7.104,8.868,12.26,11.182c5.177,2.322,11.66,2.832,16.569-0.387c4.821-3.162,7.099-8.873,7.518-14.441
		c0.446-5.939-1.188-11.941-4.332-16.982c-2.974-4.768-7.507-8.807-13.116-10.008c-2.562-0.549-5.268-0.504-7.776,0.271
		c-0.601,0.186-2.231,0.557-2.176,1.268c0.038,0.469,0.078,0.937,0.116,1.404c5.489-2.539,11.479-1.83,16.28,1.891
		c4.662,3.613,7.798,9.261,8.932,15c1.142,5.771-0.157,12.045-5.871,14.814c-5.389,2.611-12.098,0.981-16.967-2.039
		c-9.927-6.156-15.298-18.117-18.757-28.807c-3.798-11.736-5.697-24.064-6.655-36.334c-0.5-6.404-0.724-12.828-0.724-19.252
		c0.573-0.132,0.535,1.067,0.629,1.45c0.379,1.529,0.82,3.045,1.324,4.535c0.968,2.861,2.17,5.646,3.593,8.313
		c2.912,5.459,6.737,10.379,11.084,14.77c8.979,9.064,19.908,15.881,30.593,22.719c10.644,6.812,21.714,13.039,31.996,20.394
		c5.032,3.6,9.96,7.524,13.975,12.264c3.837,4.529,6.868,10.105,6.415,16.213c-0.22,2.945-1.277,6.978-4.415,8.074
		c0-2.85-2.159-4.617-4.945-4.455c-2.854,0.166-4.493,2.605-4.244,5.334c0.234,2.568,2.089,4.83,4.686,5.242
		c2.783,0.44,5.465-0.961,7.167-3.104c3.741-4.698,4.052-11.573,3.027-17.241c-1.08-5.99-3.867-11.529-7.432-16.419
		c-7.479-10.258-18.021-18.038-28.538-24.928c-2.657-1.737-5.348-3.428-8.051-5.094c-1.23-0.76-2.465-1.514-3.697-2.268
		c-0.209-0.127-1.178-0.564-1.178-0.793c0-0.347,0-0.688,0-1.029c0-2.219,0-4.439,0-6.656c0-4.326,0-8.654,0-12.979
		C94.778,717.121,107.25,724.287,120.678,724.287z M96.023,413.907c5.819-0.639,10.997-4.098,16.635-5.492
		c5.687-1.408,12.771-0.408,16.517,4.549c3.529,4.678,2.708,12.646-1.497,16.677c-1.971,1.887-4.644,2.662-7.329,2.453
		c-0.895-0.068-1.788-0.238-2.614-0.592c-0.715-0.681-1.42-1.377-2.166-2.023c-0.042-0.039-0.085-0.08-0.128-0.117
		c2.871-0.771,4.074-4.523,1.676-6.585c-2.271-1.947-6.435-1.545-7.56,1.438C105.205,420.575,100.7,417.11,96.023,413.907
		C96.396,413.866,96.513,414.243,96.023,413.907z M82.947,503.11c0-3.86,4.19-4.256,7.004-3.172c3.23,1.244,5.699,4.053,7.639,6.82
		c2.095,2.99,3.752,6.285,5.138,9.656c1.418,3.446,2.64,7.063,3.263,10.746c-5.223-2.394-9.996-6.074-14.16-9.992
		c-2.063-1.945-4.021-4.035-5.68-6.34C84.557,508.616,82.947,505.926,82.947,503.11z M82.947,646.963
		c0-3.859,4.192-4.254,7.004-3.17c3.23,1.244,5.698,4.053,7.639,6.817c2.095,2.99,3.752,6.285,5.138,9.656
		c1.418,3.447,2.64,7.063,3.263,10.744c-5.223-2.391-9.996-6.072-14.16-9.99c-2.063-1.942-4.021-4.033-5.68-6.34
		C84.557,652.469,82.947,649.778,82.947,646.963z"/>
	<path fill="#FDD60B" d="M70.85,317.068c4.74,0,9.085-2.359,11.382-6.554c2.368-4.321,2.47-9.826,0.432-14.287
		c-2-4.375-5.979-7.842-10.677-8.998c-2.354-0.577-4.74-0.413-7.123-0.137c-0.5,0.06-1,0.119-1.502,0.164
		c-0.053,0.063,0,0.405,0,0.496c0,0.362,0,0.725,0,1.088c5.671-0.949,11.572,0.03,15.503,4.528
		c3.771,4.313,4.977,11.275,1.216,15.996c-3.841,4.822-11.063,4.277-16.144,1.949c-5.406-2.477-9.396-7.25-12.36-12.275
		c-4.314-7.315-6.707-15.495-8.758-23.68c-1.005-4.01-1.957-8.037-3.162-11.992c-0.641-2.104-1.354-4.188-2.203-6.217
		c-0.438-1.055-0.912-2.094-1.428-3.111c-0.151-0.299-0.188-0.44,0.116-0.627c14.163,21.769,39.878,29.459,63.034,37.711
		c6.018,2.146,12.012,4.38,17.831,7.021c2.8,1.271,5.558,2.637,8.241,4.133c1.273,0.711,2.53,1.449,3.769,2.224
		c0.615,0.385,1.225,0.776,1.829,1.178c0.374,0.25,1.229,1.037,1.585,0.931c0.095-0.027,0.51-0.445,0.541-0.541
		c0.109-0.339-0.472-1.039-0.683-1.396c-0.445-0.758-0.895-1.516-1.344-2.271c-1.612-2.719-3.233-5.432-4.866-8.139
		c-3.322-5.518-6.684-11.014-10.056-16.502c-6.741-10.977-13.784-21.648-21.96-31.623c-8.016-9.781-16.84-19.123-26.946-26.775
		c-4.938-3.74-10.271-7.141-16.091-9.342c-2.887-1.092-5.917-1.877-9.006-2.068c-2.63-0.164-5.758-0.114-8.076,1.306
		c-2.399,1.474-3.179,4.801-2.125,7.346c1.146,2.765,4.115,3.808,6.903,3.252c1.004-0.198,1.941-0.663,2.574-1.489
		c0.346-0.453,0.586-0.98,0.746-1.527c0.685,0,1.366,0.025,2.05,0.07c2.864,0.192,5.703,0.744,8.464,1.524
		c11.376,3.222,21.435,10.242,30.028,18.188c8.885,8.213,16.504,17.736,23.285,27.727c7.181,10.572,13.845,21.547,20.389,32.52
		c0.271,0.455,2.063,2.949,1.831,3.281c-0.025,0.037-0.176,0.213-0.217,0.217c-0.628-0.586-1.267-1.16-1.916-1.723
		c-2.292-1.984-4.712-3.82-7.226-5.518c-5.134-3.467-10.641-6.344-16.286-8.881c-22.729-10.209-49.065-15.267-67.28-33.465
		c-1.803-1.804-3.5-3.711-5.075-5.715c-0.16,0.225-0.446,0.5-0.541,0.756c-0.15,0.41-0.094,0.342,0.269,0.77
		c0.521,0.617,1.013,1.258,1.479,1.92c1.733,2.469,3.093,5.189,4.229,7.98c2.396,5.881,3.831,12.096,5.271,18.262
		c1.354,5.801,2.857,11.586,4.796,17.223c1.983,5.777,4.505,11.543,8.345,16.346C58.141,313.572,64.004,317.068,70.85,317.068z"/>
	<path fill="#FDD60B" d="M121.254,231.679c-3.041,0-6.087-0.608-8.963-1.574c-1.315-0.44-2.606-0.965-3.854-1.579
		c-0.291-0.144-0.579-0.291-0.865-0.445c-0.067-0.326-0.142-0.652-0.216-0.979c-0.184-0.807-0.381-1.608-0.588-2.409
		c-1.552-5.994-3.617-11.902-6.256-17.507c-1.289-2.735-2.729-5.424-4.46-7.905c-1.563-2.238-3.438-4.525-5.894-5.814
		c-2.443-1.283-5.626-1.078-7.395,1.223c-1.729,2.256-1.72,5.449-1.387,8.135c0.758,6.117,3.809,11.847,7.391,16.769
		c3.619,4.976,8.04,9.407,12.999,13.049c4.938,3.623,10.702,6.756,16.861,7.524c5.762,0.722,11.651-1.217,13.638-7.133
		c2.477-7.383-0.695-15.949-4.18-22.467c-3.831-7.164-9.023-13.59-14.708-19.363c3.972,2.351,8.925,5.209,13.736,4.562
		c5.673-0.765,6.675-6.881,5.329-11.483c-1.463-5.011-4.669-9.486-7.912-13.498c-3.413-4.22-7.218-8.117-11.192-11.804
		c4.846,1.658,11.056,2.486,15.427-0.824c4.703-3.563,4.8-10.322,3.771-15.593c-1.141-5.855-3.854-11.338-7.052-16.33
		c-3.241-5.062-7.084-9.733-11.249-14.06c5.88,3.711,11.771,7.408,17.67,11.084c0-2.178,0-4.355,0-6.533c0-0.54,0-1.079,0-1.619
		c0-0.241,0-0.481,0-0.722c0-0.706-0.386-0.644-1.033-0.923c-2.881-1.242-5.685-2.667-8.397-4.239
		c-2.631-1.522-5.195-3.182-7.594-5.052c-2.494-1.944-4.795-4.16-7.103-6.319c-4.521-4.233-8.904-8.624-13.013-13.261
		c-1.69-1.909-3.333-3.862-4.9-5.874c-0.757-0.97-1.495-1.954-2.21-2.955c-0.223-0.313-1.172-1.138-0.573-1.432
		c0.217-0.106,2.052,0.871,2.443,0.989c0.965,0.288,1.964,0.467,2.969,0.532c2.432,0.161,5.009-0.286,7.101-1.576
		c4.396-2.714,5.142-8.402,3.656-12.993c-1.605-4.969-5.313-8.878-8.787-12.624c-0.243,0.362-0.684,0.746-0.375,1.093
		c1.394,1.576,2.798,3.146,4.063,4.829c2.283,3.038,5.272,7.784,3.727,11.751c-1.536,3.938-6.569,4.262-10.087,3.336
		c-4.008-1.056-7.405-3.725-10.287-6.607c-0.258,3.145-1.363,7.905,1.893,9.824c0.447,0.263,0.895,0.408,1.193,0.842
		c0.274,0.404,0.557,0.805,0.841,1.204c0.652,0.923,1.325,1.834,2.009,2.736c1.335,1.761,2.719,3.485,4.136,5.18
		c5.395,6.446,11.234,12.728,17.726,18.088c-0.417,0.676-1.76-0.721-2.195-1.021c-0.795-0.545-1.589-1.091-2.384-1.637
		c-1.896-1.302-3.794-2.604-5.69-3.906c-3.439-2.363-6.884-4.726-10.326-7.089c-2.109-1.45-4.223-2.899-6.334-4.349
		c0,2.043,0,4.087,0,6.131c0,0.506,0,1.012,0,1.519c0,0.226,0,0.452,0,0.678c0,0.665,0.41,0.727,0.971,1.092
		c2.68,1.753,5.362,3.499,8.052,5.239c5.317,3.442,10.653,6.857,16,10.253c1.279,0.813,2.341,1.997,3.415,3.063
		c1.175,1.167,2.323,2.361,3.44,3.582c2.163,2.359,4.224,4.816,6.147,7.375c3.646,4.846,7.014,10.131,9.012,15.892
		c0.902,2.601,1.785,5.739,1.192,8.503c-0.601,2.791-3.022,4.418-5.65,5.076c-5.582,1.396-12.122-0.42-17.095-3.02
		c-0.518-0.27-0.523-1.244-0.655-1.801c-0.166-0.701-0.342-1.398-0.523-2.096c-0.409-1.559-0.859-3.105-1.344-4.643
		c-0.934-2.976-1.988-5.915-3.184-8.796c-2.229-5.381-4.906-11.147-9.13-15.275c-1.997-1.952-4.65-3.54-7.533-2.76
		c-2.733,0.739-3.95,3.446-4.204,6.057c-0.595,6.111,2.17,12.368,5.313,17.441c3.31,5.343,7.591,10.111,12.42,14.123
		c2.411,2.004,4.979,3.826,7.707,5.381c0.648,0.371,1.311,0.727,1.979,1.064c0.713,0.359,1.226,0.83,1.813,1.369
		c1.243,1.135,2.468,2.289,3.673,3.465c4.494,4.385,8.831,9.037,12.422,14.203c1.741,2.506,8.525,13.02,2.11,13.947
		c-2.647,0.383-5.185-0.939-7.435-2.174c-2.518-1.382-4.93-2.955-7.318-4.541c-10.672-7.078-21.063-14.584-31.596-21.87
		c0,2.145,0,4.29,0,6.432c0,0.531,0,1.063,0,1.594c0,0.236,0,0.475,0,0.711c0,0.691,0.411,0.754,0.99,1.139
		c2.578,1.713,5.148,3.438,7.716,5.166c5.029,3.39,10.027,6.824,15.084,10.172c2.512,1.662,4.688,4.195,6.758,6.369
		c2.161,2.271,4.227,4.64,6.171,7.101c4.395,5.563,8.546,11.778,10.654,18.606c0.903,2.92,1.834,6.799-0.014,9.545
		C127.924,230.927,124.282,231.679,121.254,231.679z M82.947,203.31c0-3.858,4.192-4.254,7.004-3.17
		c3.23,1.244,5.698,4.054,7.639,6.82c2.095,2.989,3.752,6.284,5.138,9.653c1.418,3.449,2.64,7.062,3.263,10.744
		c-5.224-2.391-9.995-6.072-14.16-9.99c-2.063-1.942-4.021-4.035-5.68-6.34C84.557,208.813,82.947,206.126,82.947,203.31z
		 M82.947,123.392c0-3.86,4.192-4.254,7.004-3.171c3.231,1.246,5.698,4.052,7.639,6.82c2.095,2.99,3.752,6.284,5.138,9.655
		c1.418,3.448,2.64,7.06,3.263,10.744c-5.224-2.391-9.995-6.072-14.16-9.99c-2.063-1.943-4.021-4.034-5.68-6.34
		C84.557,128.896,82.947,126.207,82.947,123.392z"/>
	<path fill="#FDD60B" d="M60.335,157.663c2.641,0,4.754-1.928,4.754-4.609s-2.114-4.607-4.754-4.607
		c-2.532,0-4.752,2.031-4.752,4.607S57.802,157.663,60.335,157.663z"/>
	<path fill="#FDD60B" d="M210.047,550.713c-3.178,0-4.449,3.039-3.602,5.799c0.824,2.686,3.324,4.846,6.199,4.846
		c3.205,0,4.451-3.032,3.602-5.819C215.426,552.844,212.922,550.713,210.047,550.713z M213.76,559.873
		c-2.33,0-5.027-1.496-6.379-3.369c-1.191-1.646-0.881-4.308,1.553-4.308c2.33,0,5.029,1.496,6.379,3.369
		C216.492,557.192,216.188,559.873,213.76,559.873z"/>
	<path fill="#FDD60B" d="M230.223,457.603c2.646,0,2.646-3.961,0-3.961C227.598,453.642,227.598,457.603,230.223,457.603z"/>
	<path fill="#FDD60B" d="M260.982,445.724c-0.369-2.766-1.689-5.508-3.053-7.906c-1.537-2.705-3.451-5.196-5.65-7.397
		c2.918,1.18,7.279,1.639,8.734-1.914c1.52-3.705-0.559-8.25-2.484-11.394c-2.209-3.604-5.133-6.799-8.33-9.551
		c-1.479-1.271-3.041-2.467-4.711-3.479c-0.602-0.363-0.545-0.297-0.846,0.18c5.168,3.117,9.729,7.666,12.969,12.748
		c1.408,2.207,3.084,5.107,2.865,7.832c-0.264,3.249-4.693,2.938-6.922,2.372c-0.705-0.18-1.398-0.414-2.066-0.701
		c-0.328-0.141-0.648-0.295-0.965-0.465c-0.064-0.309-0.137-0.613-0.211-0.92c-0.371-1.525-0.834-3.029-1.365-4.508
		c-0.996-2.779-2.215-5.711-4.164-7.975c-0.764-0.883-1.807-1.824-3.049-1.824c-1.336,0-2.193,0.967-2.439,2.221
		c-0.563,2.869,0.941,6.004,2.461,8.336c0.773,1.191,1.662,2.311,2.631,3.352c-0.033,0.027-0.082,0.045-0.113,0.076
		c1.316,0.762,2.342,2.131,3.572,3.055c0.82,0.619,1.686,1.188,2.588,1.685c1.004,0.553,1.867,1.719,2.627,2.567
		c3.336,3.734,6.141,8.228,7.18,13.179c-6.797-4.697-13.895-8.953-20.547-13.863c0,1.006,0,2.01,0,3.014
		c0,0.256-0.119,1.181,0.07,1.301c0.488,0.318,0.98,0.642,1.473,0.957c0.26,0.173,2.121,1.197,1.984,1.451
		c-0.041,0.078-1.117,0.15-1.299,0.205c-0.488,0.146-0.947,0.392-1.336,0.728c-0.969,0.84-1.336,2.135-1.383,3.379
		c-0.105,2.887,1.361,5.729,2.943,8.053c1.662,2.436,3.74,4.619,6.104,6.385c1.107,0.828,2.289,1.566,3.543,2.154
		c0.645,0.301,1.309,0.561,1.986,0.762c0.646,0.644,1.275,1.295,1.889,1.965c1.881,2.054,3.99,4.423,4.842,7.129
		c0.279,0.896,0.504,2.259-0.689,2.552c-1.063,0.26-2.115-0.22-3.041-0.699c-1.912-0.992-3.689-2.252-5.467-3.469
		c-3.895-2.664-7.74-5.394-11.621-8.076c0,1.016,0,2.033,0,3.049c0,0.277,0,0.557,0,0.836c0,0.262,1.139,0.834,1.381,0.996
		c1.234,0.82,2.463,1.65,3.689,2.48c4.875,3.301,9.553,6.913,13.213,11.588c0.867,1.106,4.578,6.153,1.873,7.012
		c-1.219,0.385-2.637-0.34-3.689-0.883c-1.219-0.629-2.389-1.354-3.547-2.084c-4.824-3.037-9.523-6.271-14.26-9.441
		c-6.803-4.559-13.613-9.104-20.445-13.619c0,0.902,0,1.808,0,2.707c0,0.426,0,0.853,0,1.275c0,0.567,0.52,0.674,0.98,0.963
		c0.736,0.465,1.477,0.93,2.213,1.395c5.08,3.209,10.129,6.468,15.146,9.771c4.834,3.18,9.59,6.508,14.531,9.52
		c2.439,1.484,4.424,4.291,6.043,6.609c1.613,2.309,3.221,4.982,3.605,7.824c0.484,3.629-3.111,4.272-5.969,3.756
		c-1.363-0.248-2.711-0.703-3.934-1.363c-0.314-1.469-0.727-2.916-1.201-4.342c-0.961-2.896-2.145-5.861-3.963-8.334
		c-1.219-1.656-4.381-4.143-5.783-1.205c-1.199,2.486,0.26,5.898,1.496,8.09c0.979,1.732,2.297,3.531,3.637,4.908
		c1.307,1.34,2.889,2.6,4.477,3.619c1.15,0.74,2.309,1.285,3.352,2.184c1.158,0.996,2.271,2.039,3.324,3.144
		c1.568,1.645,3.166,3.41,4.18,5.463c0.418,0.844,0.992,2.191,0.586,3.137c-0.434,1.006-1.68,0.828-2.516,0.564
		c-2.131-0.683-4.123-1.914-6.033-3.049c-2.254-1.343-4.459-2.759-6.65-4.189c-9.135-5.971-18.029-12.297-27.271-18.102
		c0,1.049,0,2.096,0,3.143c0,0.447-0.145,0.852,0.252,1.1c0.635,0.398,1.27,0.798,1.902,1.195c1.691,1.063,3.387,2.125,5.078,3.188
		c3.832,2.403,7.664,4.811,11.494,7.215c1.732,1.09,3.469,2.178,5.201,3.268c0.488,0.31,0.979,0.611,1.467,0.918
		c0.393,0.248-0.813,0.261-0.875,0.271c-2.76,0.424-3.781,2.998-3.363,5.518c0.486,2.933,2.195,5.625,4.031,7.9
		c1.854,2.295,4.053,4.35,6.514,5.979c0.604,0.398,1.227,0.771,1.867,1.109c0.563,0.295,1.293,0.484,1.76,0.912
		c0.984,0.918,1.955,1.848,2.875,2.832c1.838,1.969,3.855,4.313,4.297,7.063c0.117,0.73,0.221,1.728-0.369,2.297
		c-0.639,0.621-1.652,0.462-2.393,0.16c-1.785-0.727-3.369-2.022-4.896-3.176c-1.736-1.309-3.447-2.66-5.256-3.879
		c-1.494-1.01-3.381-2.359-5.281-2.193c-2.076,0.185-3.262,1.904-3.262,3.881c0,2.107,1.051,4.076,2.246,5.748
		c2.625,3.67,6.266,6.484,9.697,9.355c-0.221,0.277-2.021-1.246-2.398-1.521c-1.035-0.748-2.07-1.493-3.105-2.239
		c-1.982-1.431-3.963-2.857-5.943-4.287c0.047,1.031,0.094,2.063,0.143,3.096c0.014,0.283,0.025,0.566,0.039,0.85
		c0.014,0.271,1.252,0.836,1.51,0.994c1.313,0.812,2.611,1.642,3.91,2.478c2.482,1.598,5.035,3.09,7.211,5.096
		c2.158,1.996,4.313,4.113,5.965,6.562c1.234,1.831,2.678,5.176-0.027,6.508c-2.273,1.119-5.512,0.455-7.857-0.06
		c-6.182-1.35-12.064-4.201-17.516-7.346c-5.328-3.072-10.568-6.619-14.953-10.959c-0.229-0.23-0.863-1.299-1.197-0.793
		c0.438,1.588,1.041,3.127,1.754,4.611c1.344,2.795,3.07,5.395,4.98,7.831c3.83,4.886,8.395,9.164,13.145,13.142
		c4.666,3.906,9.512,7.565,13.84,11.863c2.936,2.911,5.789,6.077,7.768,9.733c0.92,1.699,1.664,3.56,1.814,5.502
		c0.109,1.478-0.01,3.377-1.396,4.256c-0.59-2.33-4.295-0.987-4.072,1.199c0.266,2.609,3.729,2.469,5.188,1.006
		c1.805-1.813,1.787-5.143,1.285-7.465c-0.654-3.021-2.313-5.766-4.137-8.219c-3.727-5.008-8.48-9.236-13.295-13.164
		c-0.582-0.478-1.168-0.943-1.758-1.41c-0.393-0.311-0.293-0.467-0.293-0.957c0-0.52,0-1.039,0-1.561c0-1.115,0-2.23,0-3.351
		c0-0.946,0-1.895,0-2.844c2.953,1.146,5.945,2.254,9.07,2.826c2.787,0.51,6.258,0.887,8.689-0.9
		c2.633-1.934,2.254-5.479,0.869-8.051c-1.545-2.871-3.979-5.246-6.373-7.414c2.313,1.492,4.637,2.969,6.99,4.391
		c0-0.981,0-1.967,0-2.948c0-0.271,0-0.539,0-0.812c0-0.205-1.121-0.658-1.33-0.774c-1.295-0.728-2.551-1.527-3.777-2.359
		c-4.977-3.369-10.063-7.295-13.682-12.146c-0.809-1.081-1.564-2.262-1.984-3.557c-0.377-1.164-0.547-3.334,1.217-3.334
		c1.295,0,2.547,0.797,3.59,1.49c1.299,0.863,2.512,1.852,3.725,2.83c2.258,1.815,4.627,3.992,7.424,4.924
		c2.313,0.77,4.668-0.225,5.197-2.713c0.984-4.615-3.787-9.025-6.771-11.84c1.885,0.518,4.008,0.594,5.527-0.842
		c1.623-1.531,1.609-4.003,0.889-5.966c-0.793-2.149-2.344-3.957-3.941-5.559c-0.41-0.412-2.971-2.375-2.824-2.808
		c1.59,0.888,3.932,2.169,5.729,1.115c1.969-1.153,1.709-4.17,0.961-5.959c-1.525-3.641-4.738-6.559-7.656-9.115
		c1.955,0.623,4.33,0.912,6.141-0.271c2.01-1.322,2.262-3.965,1.965-6.146c-0.705-5.187-4.258-9.843-7.758-13.525
		c1.719,0.863,4.037,1.859,5.98,1.156c2.236-0.808,2.125-3.787,1.443-5.613c-1.447-3.871-4.949-7.146-7.953-9.865
		c1.563,0.922,3.273,1.851,5.127,1.941c1.951,0.094,3.264-1.359,3.264-3.273c0-1.932-1.053-3.793-2.094-5.354
		c-1.268-1.906-2.795-3.64-4.396-5.271c3.58,0.646,6.957-1.274,6.428-5.287c-0.535-4.041-3.941-7.246-6.869-9.768
		c0.295-0.271,0.855,0.396,1.137,0.588c1.252,0.867,2.52,1.711,3.777,2.563c2.6,1.765,5.174,3.566,7.629,5.523
		c4.561,3.635,9.666,8.244,11.041,14.164c0.627,2.693,0.484,6.289-1.488,8.436c-1.814,1.974-5.301,2.224-7.625,1.054
		c-1.191-0.599-1.982-1.672-2.238-2.979c-0.057-0.299,0.053-1.444-0.164-1.623c-0.51-0.422-0.604,0.849-0.633,1.063
		c-0.154,1.377,0.072,2.813,0.68,4.059c1.986,4.09,7.436,4.592,10.207,1.047c2.846-3.637,2.754-9.123,1.563-13.354
		c-1.297-4.617-4.164-8.631-7.533-11.979c-1.701-1.688-3.547-3.227-5.469-4.655c-0.85-0.632-1.715-1.24-2.586-1.841
		C262.268,446.715,261.383,446.306,260.982,445.724C260.947,445.463,261.082,445.871,260.982,445.724z M239.939,415.403
		c0-1.641,1.783-1.822,2.984-1.373c1.479,0.559,2.59,1.875,3.449,3.148c1.693,2.502,2.965,5.574,3.469,8.561
		c-2.135-0.975-4.084-2.459-5.809-4.033C242.357,420.169,239.939,417.87,239.939,415.403z M240.992,583.823
		c-4.75-3.706-9.352-7.647-13.455-12.069c-1.914-2.063-3.717-4.236-5.322-6.549c-0.385-0.556-3.432-4.937-2.945-5.271
		c5.793,6.062,12.668,11.031,20.141,14.814c0.521,0.266,1.584,0.479,1.584,1.106c0,0.41,0,0.818,0,1.229c0,0.756,0,1.51,0,2.264
		C240.992,580.842,240.992,582.334,240.992,583.823z M259.992,529.813c0,2.303-2.586,2.486-4.32,2.158
		c-2.355-0.443-4.574-1.648-6.57-2.934c-2.086-1.347-4.049-2.918-5.76-4.722c-1.498-1.58-3.4-3.768-3.4-6.08
		c0-2.5,2.479-3.084,4.563-2.698c2.371,0.436,4.586,1.922,6.496,3.315c2.033,1.482,3.939,3.172,5.621,5.043
		C257.992,525.424,259.992,527.623,259.992,529.813z M239.939,490.953c0-1.644,1.783-1.824,2.984-1.373
		c1.479,0.557,2.59,1.877,3.449,3.146c1.693,2.502,2.965,5.576,3.469,8.563c-2.135-0.978-4.082-2.459-5.809-4.035
		C242.357,495.721,239.939,493.418,239.939,490.953z M259.992,454.017c0,2.338-2.563,2.688-4.354,2.443
		c-2.527-0.344-4.934-1.463-7.082-2.799c-2.049-1.273-3.957-2.822-5.563-4.632c-1.52-1.704-3.252-4.065-3.039-6.487
		c0.445-5.074,9.105-0.604,11.146,0.748c2.039,1.348,3.9,2.979,5.529,4.801C257.971,449.601,259.992,451.854,259.992,454.017z"/>
	<path fill="#FDD60B" d="M242.848,379.64c1.158,0,2.393,0.383,3.402,0.929c0-2.236-1.496-4.418-3.955-3.793
		c-2.236,0.565-3.031,3.11-3.094,5.157c-0.063,2.09,0.57,4.315,2.145,5.771c1.654,1.531,3.871,1.651,5.928,0.979
		c2.078-0.678,4.029-1.762,6.205-2.129c2.354-0.396,5.229,0.315,6.557,2.453c1.139,1.825,0.869,4.551-0.375,6.26
		c-1.158,1.592-4.631,2.646-5.795,0.465c1.613-0.404,1.736-2.596,0.176-3.178c-1.172-0.438-2.49-0.021-2.77,1.285
		c-0.867,4.039,4.273,5.42,7.094,3.834c3.746-2.109,3.439-7.399,2.563-10.972c-1.08-4.375-3.652-8.215-6.736-11.438
		c1.736,0.5,3.779,0.699,5.418-0.221c1.746-0.979,2.143-3.07,1.688-4.895c-0.502-2.007-1.736-3.813-3.012-5.408
		c-0.277-0.351-3.189-3.668-3.271-3.603c0.15-0.125,0.85,0.252,1.078,0.33c0.619,0.219,1.26,0.396,1.918,0.453
		c2.014,0.176,3.363-1.188,3.465-3.158c0.1-2.002-0.963-3.903-2.074-5.494c-1.291-1.842-2.859-3.487-4.494-5.026
		c2.012,1.293,4.033,2.569,6.08,3.805c0-0.984,0-1.969,0-2.953c0-0.27,0-0.539,0-0.809c0-0.205-1.121-0.658-1.328-0.775
		c-1.297-0.727-2.551-1.529-3.779-2.361c-4.975-3.369-10.064-7.293-13.682-12.143c-0.807-1.084-1.564-2.262-1.984-3.559
		c-0.377-1.162-0.547-3.332,1.217-3.332c1.297,0,2.549,0.797,3.59,1.49c1.299,0.862,2.512,1.852,3.727,2.829
		c2.258,1.816,4.625,3.99,7.422,4.923c2.313,0.77,4.668-0.226,5.199-2.714c0.973-4.555-3.686-8.916-6.635-11.704
		c1.59,0.325,3.242,0.358,4.688-0.492c1.691-0.996,2.248-2.871,2-4.734c-0.533-4.039-3.938-7.252-6.867-9.768
		c0.293-0.277,0.855,0.395,1.137,0.588c1.252,0.865,2.52,1.709,3.777,2.563c2.6,1.763,5.174,3.563,7.629,5.522
		c4.561,3.634,9.666,8.242,11.041,14.162c0.627,2.697,0.482,6.287-1.488,8.438c-1.814,1.976-5.301,2.222-7.625,1.054
		c-1.191-0.599-1.982-1.673-2.238-2.979c-0.057-0.3,0.051-1.445-0.164-1.623c-0.51-0.423-0.604,0.848-0.633,1.063
		c-0.154,1.375,0.072,2.813,0.678,4.059c1.166,2.396,3.74,3.836,6.398,3.406c2.727-0.439,4.502-2.808,5.346-5.277
		c1.918-5.615,0.229-11.943-2.885-16.783c-3.205-4.984-7.844-8.799-12.676-12.129c-0.73-0.502-1.76-0.926-1.936-1.832
		c-0.26-1.357-0.729-2.682-1.258-3.955c-1.131-2.725-2.658-5.283-4.469-7.609c-0.898-1.156-1.871-2.256-2.906-3.293
		c1.93,0.781,4.234,1.285,6.252,0.527c2.564-0.971,3.146-3.779,2.887-6.232c-0.574-5.442-4.385-10.344-8.061-14.157
		c2.543,1.598,5.078,3.206,7.629,4.793c0-0.863,0-1.729,0-2.593c0-0.315,0.154-1.168,0-1.432c-1.1-0.451-2.172-0.969-3.217-1.537
		c-4.379-2.383-7.971-5.932-11.361-9.541c-1.646-1.756-3.232-3.588-4.617-5.563c-0.428-0.607,0.242-0.207,0.547-0.089
		c1.16,0.459,2.49,0.523,3.689,0.175c2.186-0.636,3.189-2.759,2.902-4.923c-0.35-2.639-2.307-4.69-4.035-6.557
		c-0.219,0.199-0.252,0.367-0.074,0.568c0.605,0.686,1.213,1.371,1.756,2.107c0.957,1.299,2.213,3.367,1.457,5.031
		c-0.771,1.698-3.039,1.715-4.564,1.239c-1.605-0.504-2.969-1.584-4.145-2.76c-0.104,1.254-0.576,3.327,0.689,4.145
		c0.785,0.511,1.197,1.253,1.766,2.005c0.58,0.772,1.186,1.526,1.803,2.27c2.338,2.803,4.873,5.531,7.689,7.859
		c-0.225,0.289-2.041-1.189-2.424-1.453c-1.047-0.719-2.096-1.438-3.143-2.156c-2.004-1.377-4.006-2.752-6.01-4.127
		c0,0.969,0,1.938,0,2.906c0,0.266,0,0.53,0,0.797c0,0.256,1.15,0.824,1.389,0.979c1.197,0.779,2.396,1.558,3.6,2.332
		c2.244,1.447,4.895,2.736,6.814,4.595c2.156,2.086,4.131,4.383,5.791,6.885c1.506,2.266,3.057,4.959,3.193,7.74
		c0.18,3.594-4.162,3.606-6.668,3.024c-0.674-0.156-1.334-0.367-1.979-0.621c-0.34-0.135-0.674-0.282-1.002-0.446
		c-0.408-0.203-0.346-0.345-0.441-0.767c-0.355-1.511-0.801-2.996-1.314-4.459c-0.984-2.822-2.191-5.767-4.1-8.104
		c-0.963-1.182-2.428-2.479-4.072-1.928c-1.674,0.561-1.814,2.648-1.648,4.127c0.408,3.658,2.684,7.012,5.131,9.65
		c-0.033,0.027-0.084,0.043-0.113,0.074c1.316,0.762,2.342,2.131,3.57,3.055c0.82,0.619,1.686,1.188,2.588,1.684
		c1.004,0.553,1.867,1.719,2.627,2.568c3.34,3.734,6.137,8.227,7.182,13.178c-6.797-4.697-13.895-8.953-20.547-13.863
		c0,0.918,0,1.836,0,2.754c0,0.488,0,0.976,0,1.463c0,0.22,1.113,0.777,1.322,0.914c0.314,0.203,2.268,1.228,2.205,1.546
		c0-0.003-1.943,0.493-2.225,0.672c-1.076,0.687-1.605,1.891-1.75,3.123c-0.326,2.809,0.996,5.639,2.463,7.948
		c1.57,2.478,3.584,4.695,5.869,6.531c1.064,0.854,2.199,1.627,3.404,2.271c0.637,0.338,1.293,0.641,1.969,0.891
		c0.652,0.242,0.99,0.533,1.49,1.009c1.965,1.893,3.963,3.93,5.268,6.354c0.645,1.201,2.059,4.602,0.033,5.264
		c-1.729,0.566-3.773-1.178-5.074-2.104c-1.855-1.326-3.635-2.756-5.48-4.096c-1.658-1.203-3.502-2.627-5.529-3.119
		c-2.086-0.506-4.037,0.832-4.391,2.914c-0.355,2.141,0.617,4.283,1.766,6.028c2.611,3.97,6.506,6.938,10.107,9.949
		c-0.219,0.278-2.021-1.246-2.396-1.519c-1.035-0.746-2.07-1.492-3.107-2.239c-1.98-1.431-3.961-2.857-5.943-4.287
		c0.047,0.979,0.09,1.959,0.135,2.938c0.014,0.221,0.021,0.438,0.031,0.659c0.027,0.572,0.326,0.607,0.814,0.904
		c1.158,0.707,2.311,1.43,3.453,2.162c2.443,1.562,4.865,3.153,7.299,4.733c2.352,1.529,4.393,3.806,6.176,5.955
		c1.293,1.562,3.729,4.344,3.041,6.58c-0.754,2.445-5.207-0.336-6.367-0.996c-5.086-2.896-9.814-6.44-14.582-9.824
		c0,1.033,0,2.064,0,3.097c0,0.687-0.094,0.877,0.529,1.226c0.508,0.282,1.018,0.567,1.523,0.854
		c0.457,0.256,0.914,0.51,1.369,0.766c0.59,0.33-0.193,0.34-0.555,0.461c-2.627,0.889-3.674,3.465-3.277,6.086
		c0.445,2.934,2.279,5.592,4.209,7.762c2.039,2.293,4.471,4.3,7.158,5.783c0.596,0.33,1.207,0.633,1.832,0.9
		c0.689,0.291,1.068,0.709,1.576,1.256c1.029,1.109,1.992,2.283,2.861,3.521c1.625,2.315,2.924,4.887,3.584,7.646
		c0.094,0.396,0.619,1.83,0.229,2.104c-0.459-2.405-2.318-4.698-4.578-5.646c-2.695-1.129-5.607,0.222-8.053,1.367
		c-2.178,1.017-5.76,2.313-7.527-0.129C239.098,382.744,240.201,379.64,242.848,379.64z M239.939,276.308
		c0-1.642,1.781-1.825,2.984-1.373c1.479,0.558,2.59,1.875,3.449,3.147c1.693,2.503,2.965,5.572,3.469,8.56
		c-2.135-0.976-4.082-2.459-5.809-4.034C242.357,281.074,239.939,278.772,239.939,276.308z M239.939,303.781
		c0-5.394,8.768-1.123,10.871,0.227c2.057,1.318,3.936,2.93,5.584,4.73c1.436,1.567,3.367,3.729,3.586,5.948
		c0.229,2.302-2.209,2.906-4.008,2.72c-2.527-0.265-4.949-1.351-7.105-2.648c-2.063-1.242-3.982-2.766-5.619-4.537
		C241.668,308.507,239.939,306.228,239.939,303.781z M239.939,358.662c0-2.448,2.307-2.979,4.305-2.674
		c2.375,0.361,4.611,1.469,6.611,2.765c2.068,1.34,3.975,2.959,5.637,4.78c1.457,1.593,3.5,3.904,3.5,6.207
		c0,2.293-2.727,2.353-4.387,2.133c-2.35-0.309-4.596-1.262-6.629-2.448c-2.049-1.197-3.953-2.681-5.59-4.402
		C241.811,363.367,239.939,361.078,239.939,358.662z"/>
</g>
</svg>
