<svg xmlns="http://www.w3.org/2000/svg" viewBox="0 0 323.9 72.51"><defs><style>.cls-1{fill:#bd9b60;stroke:#bd9b60;stroke-miterlimit:10;stroke-width:0.5px;}.cls-2{font-size:48px;fill:#cca369;font-family:BebasNeue, Bebas Neue;}</style></defs><g id="Layer_2" data-name="Layer 2"><g id="Layer_1-2" data-name="Layer 1"><path class="cls-1" d="M38.51,21.45c11.37-16.84,28.89-16,32.84-4.6,3,8.76-1.48,15.38-9,22-12,10.71-19,15.52-23.68,21.7a10,10,0,0,1,1,7.4c-1,5-4.8,5-6.1,2.93-1.5-2.43.85-7.32,2.35-9.75a16.77,16.77,0,0,0-2.21-2.34c-13,8.45-24.25,1.36-20.48-17.4.46-2.24.52-1.77,0-2.52C4.5,26,15.19,23,16.61,26.94c1.1,2.54.17,9.31-.17,12a51.93,51.93,0,0,0,4.09,5c.38-.42.64-.84,1.19-1.52,2.81-3.5,8.53-4.88,12.49-2.71,5.9,3.23,5.56,12.66,1.21,17.73l2,1.82a71.72,71.72,0,0,1,8.08-8.3c16.49-14.8,27.75-22.69,23-35C63.62,3.19,40.13,13.85,37.75,27.64c0,.1-.06.2-.08.3-.4.26-1.08.16-1.13-.33a38.23,38.23,0,0,0-1.2-7.72C32,9.75,26.34-1.2,15,1.91-1.84,6.56.19,29.31,10.79,38.21,8.64,41-7.16,20.71,4.5,6.87A18.05,18.05,0,0,1,19.81.34C30,1.46,35.36,13,36.88,21.5,37.69,26.05,36.8,24,38.51,21.45ZM30.05,53.12c3.75-4.09.39-8.2-2.42-7.77a.57.57,0,0,1-.55-.22c-.57-.82,2.18-1.62,4.07-1,4.44,2,3.22,6.72.12,10A24.93,24.93,0,0,0,33.77,56c2.76-2.5,3.45-12.84-.82-15.32-3.34-1.94-8.54.68-10.76,5C24.64,48.28,27.34,50.66,30.05,53.12ZM19.44,46.21l-3.5-3.89c-1.88,12.1,1.48,22.6,13.4,16.75A12.13,12.13,0,0,0,32,57.37a26.56,26.56,0,0,0-2.18-1.61C24.32,59.35,16.88,55.93,19.44,46.21Zm9.29,8.58c-7.3-6.45-6.9-6.3-7.45-6.73C19.75,55,25.39,57.18,28.73,54.79Zm6.86,16.43c3.55-.61,2.95-7.78,1.66-8.42C36,64.88,34.41,69.58,35.59,71.22ZM14.42,35.58c.41,0,.79-9.44.19-8.9-1.67.3-1.34,2.48-1.54,3.64A11,11,0,0,0,14.42,35.58Z"/><text class="cls-2" transform="translate(82.18 54.18)">SongTreasures</text></g></g></svg>