<svg xmlns="http://www.w3.org/2000/svg" viewBox="0 0 375.55 72.01">
	<defs>
		<style>.cls-1{fill:#D2A04A;}</style>
	</defs>
	<g id="Layer_2" data-name="Layer 2">
		<g id="Layer_1-2" data-name="Layer 1">
			<path class="cls-1" d="M38.26,21.2c11.37-16.84,28.89-16,32.84-4.6,3,8.76-1.48,15.38-9,22-12,10.71-19,15.52-23.68,21.7a10,10,0,0,1,1,7.4c-1,5-4.8,5-6.1,2.93-1.5-2.43.85-7.32,2.35-9.75a16.77,16.77,0,0,0-2.21-2.34C20.53,67,9.3,60,13.07,41.19c.46-2.24.52-1.77,0-2.52-8.83-12.88,1.86-15.91,3.28-12,1.1,2.54.17,9.31-.17,12a51.93,51.93,0,0,0,4.09,5c.38-.42.64-.84,1.19-1.52C24.28,38.64,30,37.26,34,39.43c5.9,3.23,5.56,12.66,1.21,17.73l2,1.82a71.72,71.72,0,0,1,8.08-8.3c16.49-14.8,27.75-22.69,23-35C63.37,2.94,39.88,13.6,37.5,27.39c0,.1-.06.2-.08.3-.4.26-1.08.16-1.13-.33a38.23,38.23,0,0,0-1.2-7.72c-3.36-10.14-9-21.09-20.3-18C-2.09,6.31-.06,29.06,10.54,38,8.39,40.78-7.41,20.46,4.25,6.62A18.05,18.05,0,0,1,19.56.09C29.74,1.21,35.11,12.76,36.63,21.25,37.44,25.8,36.55,23.73,38.26,21.2ZM29.8,52.87c3.75-4.09.39-8.2-2.42-7.77a.57.57,0,0,1-.55-.22c-.57-.82,2.18-1.62,4.07-1,4.44,2,3.22,6.72.12,10a24.93,24.93,0,0,0,2.5,1.89c2.76-2.5,3.45-12.84-.82-15.32-3.34-1.94-8.54.68-10.76,5C24.39,48,27.09,50.41,29.8,52.87ZM19.19,46l-3.5-3.89c-1.88,12.1,1.48,22.6,13.4,16.75a12.13,12.13,0,0,0,2.68-1.7,26.56,26.56,0,0,0-2.18-1.61C24.07,59.1,16.63,55.68,19.19,46Zm9.29,8.58c-7.3-6.45-6.9-6.3-7.45-6.73C19.5,54.78,25.14,56.93,28.48,54.54ZM35.34,71c3.55-.61,2.95-7.78,1.66-8.42C35.7,64.63,34.16,69.33,35.34,71ZM14.17,35.33c.41,0,.79-9.44.19-8.9-1.67.3-1.34,2.48-1.54,3.64A11,11,0,0,0,14.17,35.33Z" />
			<path class="cls-1" d="M103.79,28.75a7.45,7.45,0,0,0-2.65-5.27,9.22,9.22,0,0,0-6.15-2,10.3,10.3,0,0,0-4.51.94A7.65,7.65,0,0,0,87.37,25a6.36,6.36,0,0,0-1.12,3.72,5.48,5.48,0,0,0,.52,2.43A6.16,6.16,0,0,0,88.24,33a9.57,9.57,0,0,0,2.27,1.48,19.93,19.93,0,0,0,2.9,1.11l3.82,1.12a27.84,27.84,0,0,1,3.62,1.38,12.79,12.79,0,0,1,2.9,1.87,7.45,7.45,0,0,1,2.61,5.87,8.82,8.82,0,0,1-1.42,4.94,9.71,9.71,0,0,1-4,3.44,14.23,14.23,0,0,1-6.16,1.25,14,14,0,0,1-5.87-1.14,9.56,9.56,0,0,1-4-3.18,9,9,0,0,1-1.64-4.69h2.19a6.84,6.84,0,0,0,1.38,3.74,8,8,0,0,0,3.25,2.43,12,12,0,0,0,4.64.85,11.9,11.9,0,0,0,5-1,8,8,0,0,0,3.36-2.68,6.84,6.84,0,0,0,1.21-4,5.59,5.59,0,0,0-.87-3.15,7.38,7.38,0,0,0-2.57-2.27,21.12,21.12,0,0,0-4.2-1.7l-4.07-1.23a14.85,14.85,0,0,1-6.25-3.39,7.24,7.24,0,0,1-2.16-5.35A8.26,8.26,0,0,1,85.58,24a9.74,9.74,0,0,1,3.9-3.28A12.54,12.54,0,0,1,95,19.49a12.11,12.11,0,0,1,5.51,1.2A9.77,9.77,0,0,1,104.33,24a9.29,9.29,0,0,1,1.55,4.77Z" />
			<path class="cls-1" d="M121.37,55.48a10,10,0,0,1-5.77-1.75,11.94,11.94,0,0,1-4-4.82,16.23,16.23,0,0,1-1.45-7,16.23,16.23,0,0,1,1.45-7,12,12,0,0,1,4-4.82,10.37,10.37,0,0,1,11.53,0,12,12,0,0,1,4,4.83,16.22,16.22,0,0,1,1.45,7,16.23,16.23,0,0,1-1.45,7,11.94,11.94,0,0,1-4,4.82A10,10,0,0,1,121.37,55.48Zm0-1.93A7.76,7.76,0,0,0,126.16,52a10.16,10.16,0,0,0,3.19-4.2,14.68,14.68,0,0,0,1.13-5.88,14.67,14.67,0,0,0-1.14-5.87,10.26,10.26,0,0,0-3.19-4.19,8.12,8.12,0,0,0-9.57,0,10.26,10.26,0,0,0-3.19,4.19,14.67,14.67,0,0,0-1.14,5.87,14.68,14.68,0,0,0,1.13,5.88,10.08,10.08,0,0,0,3.19,4.2A7.77,7.77,0,0,0,121.37,53.55Z" />
			<path class="cls-1" d="M139.4,38v17h-2.08V28.75h2v4.14h.21a7.24,7.24,0,0,1,2.95-3.26,10.15,10.15,0,0,1,9.46-.1,8,8,0,0,1,3.14,3.2,10.06,10.06,0,0,1,1.13,4.93V54.93h-2.08V37.75a7.39,7.39,0,0,0-2-5.38,7,7,0,0,0-5.24-2,7.79,7.79,0,0,0-3.89,1A6.81,6.81,0,0,0,140.37,34,8,8,0,0,0,139.4,38Z" />
			<path class="cls-1" d="M171.91,65.29a13.91,13.91,0,0,1-4.38-.64,9.47,9.47,0,0,1-3.3-1.81,8,8,0,0,1-2.07-2.8l1.74-1a7.19,7.19,0,0,0,1.65,2.25,7.61,7.61,0,0,0,2.67,1.55,10.93,10.93,0,0,0,3.69.56,8.73,8.73,0,0,0,6-2q2.21-1.95,2.21-6V49h-.2a9.08,9.08,0,0,1-1.77,3A8.25,8.25,0,0,1,175.29,54a10.13,10.13,0,0,1-9.29-.85,10.59,10.59,0,0,1-3.67-4.51A16.56,16.56,0,0,1,161,41.84a17.73,17.73,0,0,1,1.29-7A11,11,0,0,1,166,30.09a9,9,0,0,1,5.52-1.73,8.19,8.19,0,0,1,6.71,3.13,11.17,11.17,0,0,1,1.74,3.1h.24V28.75h2V55.54A10.55,10.55,0,0,1,180.89,61a8.08,8.08,0,0,1-3.6,3.24A12.57,12.57,0,0,1,171.91,65.29Zm-.27-12.42a7.64,7.64,0,0,0,4.52-1.34,8.55,8.55,0,0,0,2.94-3.82,15.43,15.43,0,0,0,1-5.89,16.35,16.35,0,0,0-1-5.91,9.37,9.37,0,0,0-2.91-4.11,7.75,7.75,0,0,0-9.19,0A9.61,9.61,0,0,0,164.1,36a16,16,0,0,0-1,5.86,15,15,0,0,0,1,5.75A8.92,8.92,0,0,0,167,51.46,7.51,7.51,0,0,0,171.64,52.87Z" />
			<path class="cls-1" d="M184.46,22V20h24.46v2H197.76V54.93h-2.14V22Z" />
			<path class="cls-1" d="M210.83,54.93V28.75h2v4.09h.19a6.85,6.85,0,0,1,2.88-3.23,8.81,8.81,0,0,1,4.62-1.22h.54l.51,0V30.5l-.48-.06a6.43,6.43,0,0,0-.69,0,7.82,7.82,0,0,0-3.88.94,6.9,6.9,0,0,0-2.67,2.58,7.34,7.34,0,0,0-1,3.76V54.93Z" />
			<path class="cls-1" d="M234.19,55.48A10.83,10.83,0,0,1,228,53.72,11.48,11.48,0,0,1,224,48.91,16.23,16.23,0,0,1,222.53,42,16.26,16.26,0,0,1,224,35a12,12,0,0,1,4-4.84,9.77,9.77,0,0,1,5.76-1.77,10.19,10.19,0,0,1,4.17.87,10.48,10.48,0,0,1,3.48,2.54,12.2,12.2,0,0,1,2.37,4,15.21,15.21,0,0,1,.86,5.25v1.3H223.84V40.41h18.65a11.19,11.19,0,0,0-1.16-5.13,9.3,9.3,0,0,0-3.15-3.63,7.84,7.84,0,0,0-4.49-1.35,7.72,7.72,0,0,0-4.64,1.46,10,10,0,0,0-3.22,3.93,13,13,0,0,0-1.24,5.52v.85a14.3,14.3,0,0,0,1.15,5.87A9.71,9.71,0,0,0,229,52a8.7,8.7,0,0,0,5.15,1.51,8.4,8.4,0,0,0,3.67-.73,8.16,8.16,0,0,0,2.5-1.76,8.75,8.75,0,0,0,1.46-2l1.9.77a9.76,9.76,0,0,1-1.85,2.61,10.3,10.3,0,0,1-3.17,2.18A10.87,10.87,0,0,1,234.19,55.48Z" />
			<path class="cls-1" d="M256.28,55.49a9.52,9.52,0,0,1-4.15-.9,7.35,7.35,0,0,1-3-2.64A7.63,7.63,0,0,1,248,47.72a6.7,6.7,0,0,1,.58-2.88,5.64,5.64,0,0,1,1.79-2.15,10.29,10.29,0,0,1,3.1-1.49,25.86,25.86,0,0,1,4.52-.91c1.33-.16,2.52-.32,3.56-.47a7.2,7.2,0,0,0,2.46-.73,1.59,1.59,0,0,0,.9-1.5V36.5A5.91,5.91,0,0,0,263.08,32a7,7,0,0,0-5-1.68,8.56,8.56,0,0,0-4.73,1.23,6.61,6.61,0,0,0-2.69,3.18l-2-.73a8,8,0,0,1,2.17-3.12A9.42,9.42,0,0,1,254.18,29a12.15,12.15,0,0,1,3.87-.61,11.22,11.22,0,0,1,3.35.49,8.45,8.45,0,0,1,2.85,1.5,7.09,7.09,0,0,1,2,2.57,8.81,8.81,0,0,1,.73,3.72V54.93h-2.08V50.21h-.15a9.7,9.7,0,0,1-1.87,2.67,8.73,8.73,0,0,1-2.85,1.9A9.27,9.27,0,0,1,256.28,55.49Zm.21-1.92a7.91,7.91,0,0,0,4.35-1.21,8.32,8.32,0,0,0,3-3.29,10.39,10.39,0,0,0,1.07-4.76V40.46a3.39,3.39,0,0,1-1.13.6,12.91,12.91,0,0,1-1.67.46c-.62.13-1.27.25-1.95.34l-2,.27a19.37,19.37,0,0,0-4.66,1A5.68,5.68,0,0,0,250.89,45a4.58,4.58,0,0,0-.83,2.76A5.25,5.25,0,0,0,251.9,52,6.91,6.91,0,0,0,256.49,53.57Z" />
			<path class="cls-1" d="M289.92,34.39,288,34.9a7.66,7.66,0,0,0-1.31-2.47,5.82,5.82,0,0,0-2.14-1.61,7.59,7.59,0,0,0-3.08-.57,7.44,7.44,0,0,0-4.71,1.43,4.51,4.51,0,0,0-1.83,3.73,4.17,4.17,0,0,0,1.24,3.1,8.18,8.18,0,0,0,3.8,1.85l4,1a9.1,9.1,0,0,1,4.67,2.48,6,6,0,0,1,1.57,4.25,6.51,6.51,0,0,1-1.17,3.84,7.92,7.92,0,0,1-3.25,2.61,11.67,11.67,0,0,1-4.82.94,10,10,0,0,1-6-1.72,7.75,7.75,0,0,1-3-4.92l2-.51a6.38,6.38,0,0,0,2.35,3.9A7.58,7.58,0,0,0,281,53.57a8.25,8.25,0,0,0,5.17-1.52,4.71,4.71,0,0,0,2-3.89,4.33,4.33,0,0,0-1.16-3,6.87,6.87,0,0,0-3.51-1.82l-4.18-1a9.56,9.56,0,0,1-4.81-2.52,6.08,6.08,0,0,1-1.6-4.27A6.33,6.33,0,0,1,274,31.77,7.43,7.43,0,0,1,277,29.26a10.5,10.5,0,0,1,4.45-.9,8.13,8.13,0,0,1,8.46,6Z" />
			<path class="cls-1" d="M311.79,45.64V28.75h2.08V54.93h-2.08V50.69h-.17a7.55,7.55,0,0,1-3,3.3,9.82,9.82,0,0,1-9.4.16,8,8,0,0,1-3.1-3.2A10.2,10.2,0,0,1,295,46V28.75h2.08V45.93a7.23,7.23,0,0,0,2,5.29,6.88,6.88,0,0,0,5.14,2,7.82,7.82,0,0,0,3.77-.92,7.18,7.18,0,0,0,2.76-2.63A7.67,7.67,0,0,0,311.79,45.64Z" />
			<path class="cls-1" d="M320.09,54.93V28.75h2v4.09h.19a6.85,6.85,0,0,1,2.88-3.23,8.81,8.81,0,0,1,4.62-1.22h.54l.51,0V30.5l-.48-.06a6.43,6.43,0,0,0-.69,0,7.82,7.82,0,0,0-3.88.94,6.9,6.9,0,0,0-2.67,2.58,7.34,7.34,0,0,0-1,3.76V54.93Z" />
			<path class="cls-1" d="M343.45,55.48a10.83,10.83,0,0,1-6.17-1.76,11.48,11.48,0,0,1-4.06-4.81A16.08,16.08,0,0,1,331.79,42a16.26,16.26,0,0,1,1.44-7,12,12,0,0,1,4-4.84A9.77,9.77,0,0,1,343,28.36a10.19,10.19,0,0,1,4.17.87,10.48,10.48,0,0,1,3.48,2.54,12.2,12.2,0,0,1,2.37,4,15.21,15.21,0,0,1,.86,5.25v1.3H333.1V40.41h18.65a11.19,11.19,0,0,0-1.16-5.13,9.38,9.38,0,0,0-3.15-3.63A7.84,7.84,0,0,0,343,30.3a7.72,7.72,0,0,0-4.64,1.46,10,10,0,0,0-3.22,3.93,13,13,0,0,0-1.24,5.52v.85A14.3,14.3,0,0,0,335,47.93,9.71,9.71,0,0,0,338.3,52a8.7,8.7,0,0,0,5.15,1.51,8.4,8.4,0,0,0,3.67-.73,8.16,8.16,0,0,0,2.5-1.76,9.06,9.06,0,0,0,1.46-2l1.89.77a9.49,9.49,0,0,1-1.84,2.61A10.3,10.3,0,0,1,348,54.61,10.87,10.87,0,0,1,343.45,55.48Z" />
			<path class="cls-1" d="M375.24,34.39l-1.93.51A7.29,7.29,0,0,0,372,32.43a5.74,5.74,0,0,0-2.14-1.61,8.52,8.52,0,0,0-7.79.86,4.51,4.51,0,0,0-1.83,3.73,4.17,4.17,0,0,0,1.24,3.1,8.18,8.18,0,0,0,3.81,1.85l4,1A9.14,9.14,0,0,1,374,43.84a6.08,6.08,0,0,1,1.57,4.25,6.52,6.52,0,0,1-1.18,3.84,7.86,7.86,0,0,1-3.25,2.61,11.63,11.63,0,0,1-4.81.94,10,10,0,0,1-6-1.72,7.79,7.79,0,0,1-3-4.92l2-.51a6.33,6.33,0,0,0,2.34,3.9,7.62,7.62,0,0,0,4.68,1.34,8.23,8.23,0,0,0,5.17-1.52,4.68,4.68,0,0,0,2-3.89,4.28,4.28,0,0,0-1.16-3,6.87,6.87,0,0,0-3.51-1.82l-4.17-1a9.52,9.52,0,0,1-4.81-2.52,6,6,0,0,1-1.6-4.27,6.33,6.33,0,0,1,1.11-3.71,7.3,7.3,0,0,1,3-2.51,10.46,10.46,0,0,1,4.45-.9,8.11,8.11,0,0,1,8.45,6Z" />
		</g>
	</g>
</svg>