<?xml version="1.0" encoding="utf-8"?>
<!-- Generator: Adobe Illustrator 25.1.0, SVG Export Plug-In . SVG Version: 6.00 Build 0)  -->
<svg version="1.1" id="Layer_1" xmlns="http://www.w3.org/2000/svg" xmlns:xlink="http://www.w3.org/1999/xlink" x="0px" y="0px"
	 viewBox="0 0 73.2 72.5" style="enable-background:new 0 0 73.2 72.5;" xml:space="preserve">
<style type="text/css">
	.st0{fill:#BD9B60;stroke:#BD9B60;stroke-width:0.5;stroke-miterlimit:10;}
</style>
<path class="st0" d="M38.9,21.5c11.4-16.8,28.9-16,32.8-4.6c3,8.8-1.5,15.4-9,22c-12,10.7-19,15.5-23.7,21.7c1.3,2.2,1.6,4.9,1,7.4
	c-1,5-4.8,5-6.1,2.9c-1.5-2.4,0.8-7.3,2.3-9.7c-0.7-0.8-1.4-1.6-2.2-2.3c-13,8.4-24.2,1.4-20.5-17.4c0.5-2.2,0.5-1.8,0-2.5
	C4.8,26,15.5,23,17,27c1.1,2.5,0.2,9.3-0.2,12c1.3,1.7,2.6,3.4,4.1,5c0.4-0.4,0.6-0.8,1.2-1.5c2.8-3.5,8.5-4.9,12.5-2.7
	c5.9,3.2,5.6,12.7,1.2,17.7l2,1.8c2.5-3,5.2-5.8,8.1-8.3c16.5-14.8,27.8-22.7,23-35C64,3.2,40.5,13.9,38.1,27.7
	c0,0.1-0.1,0.2-0.1,0.3c-0.4,0.3-1.1,0.2-1.1-0.3c-0.1-2.6-0.5-5.2-1.2-7.7c-3.3-10.1-9-21.1-20.3-18C-1.5,6.6,0.5,29.3,11.1,38.2
	C9,41-6.8,20.7,4.8,6.9c3.7-4.5,9.4-7,15.3-6.5C30.3,1.5,35.7,13,37.2,21.5C38,26.1,37.1,24,38.9,21.5z M30.4,53.1
	c3.8-4.1,0.4-8.2-2.4-7.8c-0.2,0-0.4,0-0.5-0.2c-0.6-0.8,2.2-1.6,4.1-1c4.4,2,3.2,6.7,0.1,10c0.8,0.7,1.6,1.3,2.5,1.9
	c2.8-2.5,3.5-12.8-0.8-15.3c-3.3-1.9-8.5,0.7-10.8,5C25,48.3,27.7,50.7,30.4,53.1z M19.8,46.2l-3.5-3.9
	c-1.9,12.1,1.5,22.6,13.4,16.8c1-0.4,1.9-1,2.7-1.7c-0.7-0.6-1.4-1.1-2.2-1.6C24.7,59.4,17.2,55.9,19.8,46.2z M29.1,54.8
	c-7.3-6.5-6.9-6.3-7.5-6.7C20.1,55,25.7,57.2,29.1,54.8z M35.9,71.2c3.5-0.6,3-7.8,1.7-8.4C36.3,64.9,34.8,69.6,35.9,71.2z
	 M14.8,35.6c0.4,0,0.8-9.4,0.2-8.9c-1.7,0.3-1.3,2.5-1.5,3.6C13.4,32.2,13.9,34,14.8,35.6z"/>
</svg>
