<svg xmlns="http://www.w3.org/2000/svg" width="311.811" height="850.394" xml:space="preserve">
  <g fill="#FDD60B">
    <path d="M120.678 724.287c4.419 0 9.244-1.322 11.755-5.25 2.522-3.947 2.077-9.146.547-13.363-1.661-4.578-4.557-8.654-7.707-12.324-3.229-3.764-6.854-7.184-10.638-10.383 4.717 1.395 10.663 1.801 14.627-1.646 4.335-3.766 4.272-10.377 3.21-15.541-2.376-11.524-10.239-21.729-18.229-30.034a4208.672 4208.672 0 0 0 17.667 11.082V637.955c0-.705-.385-.646-1.033-.927a79.973 79.973 0 0 1-8.397-4.235c-2.631-1.523-5.195-3.185-7.594-5.056-2.494-1.94-4.794-4.157-7.103-6.317-4.521-4.232-8.905-8.623-13.013-13.263a126.975 126.975 0 0 1-4.221-5.01 100.966 100.966 0 0 1-2.012-2.606c-.268-.361-1.803-2.064-1.67-2.427.172-.467.681-.016.929.105.722.35 1.481.615 2.26.813 1.831.466 3.755.537 5.618.229 4.331-.711 7.533-3.801 8.168-8.176.646-4.48-1.239-8.74-3.79-12.313a3016.882 3016.882 0 0 0 31.855 20.103v-8.871c0-.705-.385-.646-1.033-.925a79.7 79.7 0 0 1-8.397-4.237c-2.631-1.521-5.196-3.183-7.594-5.054-2.493-1.944-4.794-4.159-7.103-6.319-4.521-4.232-8.905-8.623-13.013-13.26a129.22 129.22 0 0 1-4.221-5.011 99.96 99.96 0 0 1-2.012-2.61c-.267-.359-1.804-2.066-1.67-2.425.173-.463.682-.014.927.105.724.35 1.483.615 2.262.813 1.831.466 3.755.537 5.618.229 4.33-.711 7.533-3.801 8.168-8.176.606-4.201-1.021-8.23-3.333-11.658 4.79 3.727 10.318 6.957 16.321 8.19 5.495 1.132 12.001.265 14.777-5.245 2.714-5.386 1.349-12.248-.623-17.642-2.117-5.787-5.412-11.113-9.12-16.008a98.352 98.352 0 0 0-6.313-7.494c5.408 3.49 10.845 6.945 16.355 10.271V495.085c0-.61-.218-.567-.774-.854-2.579-1.311-5.063-2.811-7.501-4.363-10.726-6.834-21.039-14.836-29.821-24.055-4.071-4.273-8.445-9.205-10.27-14.938-.686-2.158-1.294-5.755 1.036-7.195 2.214-1.371 5.449.238 7.442 1.324 5.505 2.996 10.233 7.373 15.129 11.235 2.446 1.933 4.933 3.826 7.571 5.49 2.538 1.6 5.349 3.137 8.36 3.555 3.188.443 6.446-.717 8.282-3.438 1.815-2.691 2.021-6.207 1.332-9.301-1.491-6.695-6.474-12.394-11.101-17.205 13.603-2.287 12.517-19.749 9.439-29.645-3.688-11.871-11.9-21.82-21.141-29.881-4.741-4.137-9.841-7.855-15.146-11.238-.091.185-.297.449-.322.648-.055.383.095.346.504.613a123.876 123.876 0 0 1 9.106 6.553c4.722 3.735 9.172 7.832 13.154 12.351 3.92 4.444 7.403 9.319 10.021 14.649 1.308 2.66 2.394 5.432 3.188 8.289.395 1.422.717 2.863.958 4.315.096.571.587 1.729-.027 2.116-1.092-5.695-5.556-11.159-10.973-13.27-5.501-2.144-11.561.135-16.613 2.451-5.1 2.34-11.793 5.793-17.256 2.448-4.62-2.825-5.063-11.31.524-13.354 3.35-1.223 7.609.096 10.617 1.707 0-2.65-.749-5.57-2.771-7.418-2.05-1.883-5.18-2.092-7.663-.988-5.53 2.453-6.545 10.044-5.763 15.33.848 5.767 4.456 11.291 10.42 12.617.716.16 1.444.256 2.178.293.593.381 1.178.772 1.757 1.174 1.269.873 2.512 1.781 3.738 2.707a195.26 195.26 0 0 1 7.267 5.76c.704.586 2.448 1.533 2.374 2.475-.088 1.112.094 2.272.455 3.323.989 2.869 3.494 4.955 6.367 5.785 1.113.322 2.273.459 3.432.4 1.028-.051 2.133 1.723 2.808 2.473 2.068 2.299 4.04 4.709 5.683 7.334 1.548 2.476 2.828 5.189 3.261 8.101.345 2.297.319 5.272-2.403 5.981-2.583.674-5.165-.848-7.299-2.137-2.573-1.553-5.002-3.346-7.406-5.146-5.025-3.762-9.923-7.754-15.262-11.071-4.524-2.813-11.019-5.933-15.396-1.035-4.164 4.654-1.757 11.934.972 16.647 3.075 5.313 7.428 9.845 11.887 14.011 4.094 3.825 8.447 7.348 12.746 10.938-.415.687-1.746-.764-2.175-1.067-.784-.568-1.57-1.138-2.356-1.703-1.876-1.354-3.752-2.705-5.629-4.062l-10.215-7.367a8655.24 8655.24 0 0 0-6.268-4.521c.102 2.178.199 4.354.302 6.533.024.541.052 1.08.074 1.619.012.237.022.479.033.721.031.676.381.703.97 1.059a399.797 399.797 0 0 1 7.882 4.906c5.31 3.375 10.567 6.824 15.839 10.258 1.329.865 2.454 1.728 3.576 2.851a104.312 104.312 0 0 1 3.333 3.483 99.52 99.52 0 0 1 6.062 7.285c3.687 4.902 7.095 10.262 9.063 16.107.875 2.596 1.746 5.77 1.029 8.5-.727 2.766-3.273 4.278-5.911 4.87-5.604 1.255-12.105-.586-17.05-3.247-1.278-5.99-3.2-11.882-5.565-17.527-2.239-5.35-4.94-11.139-9.233-15.17-2.031-1.906-4.752-3.377-7.584-2.433-2.675.894-3.748 3.699-3.935 6.3-.441 6.207 2.384 12.45 5.634 17.567a56.174 56.174 0 0 0 5.521 7.271c1.996 2.242 4.209 4.215 5.995 6.641 3.007 4.086 6.828 12.389-.229 14.746-6.195 2.07-12.529-2.465-16.668-6.602-.256 3.147-1.36 7.901 1.895 9.823.448.267.895.408 1.193.845.274.401.557.805.841 1.202a95.606 95.606 0 0 0 2.009 2.738 139.782 139.782 0 0 0 4.136 5.18c5.395 6.443 11.233 12.729 17.726 18.086-.417.677-1.76-.721-2.195-1.021l-2.384-1.637-5.69-3.906c-3.439-2.363-6.884-4.725-10.326-7.088l-6.334-4.351V566.867c0 .652.381.705.935 1.066 2.58 1.688 5.164 3.365 7.753 5.039 1.233.799 2.471 1.596 3.708 2.395.616.396 1.231.795 1.851 1.189.778.5 1.256 1.188 1.801 1.93 1.729 2.357 3.285 5.015 3.72 7.947.395 2.672-.528 5.148-3.035 6.4-2.533 1.266-5.667.977-8.272.098-3.6-1.213-6.667-3.664-9.318-6.316-.257 3.146-1.363 7.904 1.893 9.826.447.269.896.408 1.193.847a99.41 99.41 0 0 0 2.85 3.936 138.072 138.072 0 0 0 4.136 5.178c5.395 6.445 11.233 12.73 17.726 18.091-.417.676-1.759-.724-2.195-1.021l-2.384-1.637-5.69-3.906c-3.439-2.363-6.884-4.725-10.326-7.088l-6.334-4.351v8.33c0 .664.41.728.971 1.092 2.681 1.755 5.362 3.5 8.054 5.24a2361.119 2361.119 0 0 0 16.004 10.256c1.279.813 2.341 1.998 3.414 3.063a108.565 108.565 0 0 1 3.441 3.58 98.476 98.476 0 0 1 6.146 7.375c3.647 4.846 7.011 10.129 9.009 15.889.902 2.604 1.785 5.74 1.192 8.504-.599 2.791-3.023 4.416-5.65 5.074-5.582 1.4-12.123-.42-17.095-3.021-.518-.27-.522-1.243-.655-1.801-.166-.701-.342-1.397-.523-2.096a100 100 0 0 0-1.343-4.643 105.421 105.421 0 0 0-3.185-8.8c-2.229-5.381-4.906-11.145-9.13-15.271-1.997-1.951-4.65-3.539-7.533-2.76-2.732.735-3.95 3.444-4.204 6.057-.583 6.006 2.086 12.15 5.146 17.16 1.604 2.629 3.455 5.104 5.474 7.43.561.643 1.701 1.549 1.888 2.277.095.367-.493.225.064.561 2.548 1.529 4.579 3.73 6.937 5.545 2.404 1.846 4.956 3.512 7.654 4.898.616.313 1.311.559 1.853.992.586.469 1.168.94 1.745 1.422a124.812 124.812 0 0 1 3.667 3.147c2.317 2.074 4.558 4.24 6.663 6.527 3.969 4.311 8.246 9.541 9.334 15.467.228 1.236.417 2.646-.194 3.803-.636 1.201-1.879 1.957-3.109 2.435-2.623 1.012-5.519.93-8.271.686-5.996-.526-11.865-2.244-17.479-4.361-5.884-2.219-11.567-4.956-17.071-7.993-11.063-6.104-21.54-13.41-31.048-21.736-4.632-4.055-9.063-8.381-12.99-13.131-3.591-4.344-7.37-9.445-8.471-15.097-.553-2.842-.003-5.168 2.313-7.024 1.984-1.592 5.513-2.963 5.513-5.969 0-2.722-2.418-4.734-5.063-4.603-3.106.156-5.307 2.746-6.099 5.582-.818 2.935-.261 6.35.344 9.279.628 3.043 1.636 6.002 2.885 8.846 2.517 5.73 5.983 11.019 9.835 15.935 7.837 10.008 17.336 18.715 27.354 26.489a192.29 192.29 0 0 0 10.952 7.906c.263.176.835.365.835.713V730.324c-10.712-6.291-21.271-13.057-30.773-21.09-4.646-3.928-9.089-8.199-12.736-13.084-3.649-4.885-6.63-10.646-6.745-16.867-.025-1.338.013-2.676-.055-4.012-.059-1.115-.071-2.803-1.093-3.527-1.068-.76-2.313-.164-2.538 1.078-.242 1.352.142 2.811.487 4.111.764 2.854 1.461 5.58 1.465 8.561.005 3.275.059 6.553.16 9.828.41 12.992 1.553 26.016 4.001 38.791 2.268 11.814 5.535 24.143 12.268 34.273 3.086 4.645 7.104 8.868 12.26 11.182 5.177 2.322 11.66 2.832 16.569-.387 4.821-3.162 7.099-8.873 7.518-14.441.446-5.939-1.188-11.941-4.332-16.982-2.974-4.768-7.507-8.807-13.116-10.008-2.562-.549-5.268-.504-7.776.271-.601.186-2.231.557-2.176 1.268l.116 1.404c5.489-2.539 11.479-1.83 16.28 1.891 4.662 3.613 7.798 9.261 8.932 15 1.142 5.771-.157 12.045-5.871 14.814-5.389 2.611-12.098.981-16.967-2.039-9.927-6.156-15.298-18.117-18.757-28.807-3.798-11.736-5.697-24.064-6.655-36.334a247.34 247.34 0 0 1-.724-19.252c.573-.132.535 1.067.629 1.45a56.85 56.85 0 0 0 1.324 4.535 55.364 55.364 0 0 0 3.593 8.313c2.912 5.459 6.737 10.379 11.084 14.77 8.979 9.064 19.908 15.881 30.593 22.719 10.644 6.812 21.714 13.039 31.996 20.394 5.032 3.6 9.96 7.524 13.975 12.264 3.837 4.529 6.868 10.105 6.415 16.213-.22 2.945-1.277 6.978-4.415 8.074 0-2.85-2.159-4.617-4.945-4.455-2.854.166-4.493 2.605-4.244 5.334.234 2.568 2.089 4.83 4.686 5.242 2.783.44 5.465-.961 7.167-3.104 3.741-4.698 4.052-11.573 3.027-17.241-1.08-5.99-3.867-11.529-7.432-16.419-7.479-10.258-18.021-18.038-28.538-24.928a357.674 357.674 0 0 0-8.051-5.094c-1.23-.76-2.465-1.514-3.697-2.268-.209-.127-1.178-.564-1.178-.793V710.308c11.092 6.813 23.564 13.979 36.992 13.979zm-24.655-310.38c5.819-.639 10.997-4.098 16.635-5.492 5.687-1.408 12.771-.408 16.517 4.549 3.529 4.678 2.708 12.646-1.497 16.677-1.971 1.887-4.644 2.662-7.329 2.453-.895-.068-1.788-.238-2.614-.592-.715-.681-1.42-1.377-2.166-2.023-.042-.039-.085-.08-.128-.117 2.871-.771 4.074-4.523 1.676-6.585-2.271-1.947-6.435-1.545-7.56 1.438-4.352-3.64-8.857-7.105-13.534-10.308.373-.041.49.336 0 0zM82.947 503.11c0-3.86 4.19-4.256 7.004-3.172 3.23 1.244 5.699 4.053 7.639 6.82 2.095 2.99 3.752 6.285 5.138 9.656 1.418 3.446 2.64 7.063 3.263 10.746-5.223-2.394-9.996-6.074-14.16-9.992-2.063-1.945-4.021-4.035-5.68-6.34-1.594-2.212-3.204-4.902-3.204-7.718zm0 143.853c0-3.859 4.192-4.254 7.004-3.17 3.23 1.244 5.698 4.053 7.639 6.817 2.095 2.99 3.752 6.285 5.138 9.656 1.418 3.447 2.64 7.063 3.263 10.744-5.223-2.391-9.996-6.072-14.16-9.99-2.063-1.942-4.021-4.033-5.68-6.34-1.594-2.211-3.204-4.902-3.204-7.717zM70.85 317.068c4.74 0 9.085-2.359 11.382-6.554 2.368-4.321 2.47-9.826.432-14.287-2-4.375-5.979-7.842-10.677-8.998-2.354-.577-4.74-.413-7.123-.137-.5.06-1 .119-1.502.164-.053.063 0 .405 0 .496v1.088c5.671-.949 11.572.03 15.503 4.528 3.771 4.313 4.977 11.275 1.216 15.996-3.841 4.822-11.063 4.277-16.144 1.949-5.406-2.477-9.396-7.25-12.36-12.275-4.314-7.315-6.707-15.495-8.758-23.68-1.005-4.01-1.957-8.037-3.162-11.992-.641-2.104-1.354-4.188-2.203-6.217a45.045 45.045 0 0 0-1.428-3.111c-.151-.299-.188-.44.116-.627 14.163 21.769 39.878 29.459 63.034 37.711 6.018 2.146 12.012 4.38 17.831 7.021 2.8 1.271 5.558 2.637 8.241 4.133a88.19 88.19 0 0 1 3.769 2.224c.615.385 1.225.776 1.829 1.178.374.25 1.229 1.037 1.585.931.095-.027.51-.445.541-.541.109-.339-.472-1.039-.683-1.396a1239.507 1239.507 0 0 0-6.21-10.41 2134.87 2134.87 0 0 0-10.056-16.502c-6.741-10.977-13.784-21.648-21.96-31.623-8.016-9.781-16.84-19.123-26.946-26.775-4.938-3.74-10.271-7.141-16.091-9.342-2.887-1.092-5.917-1.877-9.006-2.068-2.63-.164-5.758-.114-8.076 1.306-2.399 1.474-3.179 4.801-2.125 7.346 1.146 2.765 4.115 3.808 6.903 3.252 1.004-.198 1.941-.663 2.574-1.489a4.66 4.66 0 0 0 .746-1.527c.685 0 1.366.025 2.05.07 2.864.192 5.703.744 8.464 1.524 11.376 3.222 21.435 10.242 30.028 18.188 8.885 8.213 16.504 17.736 23.285 27.727 7.181 10.572 13.845 21.547 20.389 32.52.271.455 2.063 2.949 1.831 3.281-.025.037-.176.213-.217.217a71.071 71.071 0 0 0-1.916-1.723 76.177 76.177 0 0 0-7.226-5.518c-5.134-3.467-10.641-6.344-16.286-8.881-22.729-10.209-49.065-15.267-67.28-33.465a64.262 64.262 0 0 1-5.075-5.715c-.16.225-.446.5-.541.756-.15.41-.094.342.269.77a27.577 27.577 0 0 1 1.479 1.92c1.733 2.469 3.093 5.189 4.229 7.98 2.396 5.881 3.831 12.096 5.271 18.262 1.354 5.801 2.857 11.586 4.796 17.223 1.983 5.777 4.505 11.543 8.345 16.346 4.204 5.25 10.067 8.746 16.913 8.746zM121.254 231.679c-3.041 0-6.087-.608-8.963-1.574a31.053 31.053 0 0 1-3.854-1.579 28.216 28.216 0 0 1-.865-.445c-.067-.326-.142-.652-.216-.979a86.246 86.246 0 0 0-.588-2.409c-1.552-5.994-3.617-11.902-6.256-17.507-1.289-2.735-2.729-5.424-4.46-7.905-1.563-2.238-3.438-4.525-5.894-5.814-2.443-1.283-5.626-1.078-7.395 1.223-1.729 2.256-1.72 5.449-1.387 8.135.758 6.117 3.809 11.847 7.391 16.769a60.161 60.161 0 0 0 12.999 13.049c4.938 3.623 10.702 6.756 16.861 7.524 5.762.722 11.651-1.217 13.638-7.133 2.477-7.383-.695-15.949-4.18-22.467-3.831-7.164-9.023-13.59-14.708-19.363 3.972 2.351 8.925 5.209 13.736 4.562 5.673-.765 6.675-6.881 5.329-11.483-1.463-5.011-4.669-9.486-7.912-13.498-3.413-4.22-7.218-8.117-11.192-11.804 4.846 1.658 11.056 2.486 15.427-.824 4.703-3.563 4.8-10.322 3.771-15.593-1.141-5.855-3.854-11.338-7.052-16.33-3.241-5.062-7.084-9.733-11.249-14.06 5.88 3.711 11.771 7.408 17.67 11.084v-8.874c0-.706-.386-.644-1.033-.923a79.619 79.619 0 0 1-8.397-4.239c-2.631-1.522-5.195-3.182-7.594-5.052-2.494-1.944-4.795-4.16-7.103-6.319-4.521-4.233-8.904-8.624-13.013-13.261a121.607 121.607 0 0 1-4.9-5.874 86.957 86.957 0 0 1-2.21-2.955c-.223-.313-1.172-1.138-.573-1.432.217-.106 2.052.871 2.443.989.965.288 1.964.467 2.969.532 2.432.161 5.009-.286 7.101-1.576 4.396-2.714 5.142-8.402 3.656-12.993-1.605-4.969-5.313-8.878-8.787-12.624-.243.362-.684.746-.375 1.093 1.394 1.576 2.798 3.146 4.063 4.829 2.283 3.038 5.272 7.784 3.727 11.751-1.536 3.938-6.569 4.262-10.087 3.336-4.008-1.056-7.405-3.725-10.287-6.607-.258 3.145-1.363 7.905 1.893 9.824.447.263.895.408 1.193.842a100.487 100.487 0 0 0 2.85 3.94 139.163 139.163 0 0 0 4.136 5.18c5.395 6.446 11.234 12.728 17.726 18.088-.417.676-1.76-.721-2.195-1.021l-2.384-1.637-5.69-3.906c-3.439-2.363-6.884-4.726-10.326-7.089-2.109-1.45-4.223-2.899-6.334-4.349V91.259c0 .665.41.727.971 1.092 2.68 1.753 5.362 3.499 8.052 5.239a2191.974 2191.974 0 0 0 16 10.253c1.279.813 2.341 1.997 3.415 3.063a103.773 103.773 0 0 1 3.44 3.582 98.408 98.408 0 0 1 6.147 7.375c3.646 4.846 7.014 10.131 9.012 15.892.902 2.601 1.785 5.739 1.192 8.503-.601 2.791-3.022 4.418-5.65 5.076-5.582 1.396-12.122-.42-17.095-3.02-.518-.27-.523-1.244-.655-1.801-.166-.701-.342-1.398-.523-2.096a98.794 98.794 0 0 0-1.344-4.643 104.717 104.717 0 0 0-3.184-8.796c-2.229-5.381-4.906-11.147-9.13-15.275-1.997-1.952-4.65-3.54-7.533-2.76-2.733.739-3.95 3.446-4.204 6.057-.595 6.111 2.17 12.368 5.313 17.441 3.31 5.343 7.591 10.111 12.42 14.123 2.411 2.004 4.979 3.826 7.707 5.381a42.7 42.7 0 0 0 1.979 1.064c.713.359 1.226.83 1.813 1.369a152.052 152.052 0 0 1 3.673 3.465c4.494 4.385 8.831 9.037 12.422 14.203 1.741 2.506 8.525 13.02 2.11 13.947-2.647.383-5.185-.939-7.435-2.174-2.518-1.382-4.93-2.955-7.318-4.541-10.672-7.078-21.063-14.584-31.596-21.87v8.737c0 .691.411.754.99 1.139 2.578 1.713 5.148 3.438 7.716 5.166 5.029 3.39 10.027 6.824 15.084 10.172 2.512 1.662 4.688 4.195 6.758 6.369a102.34 102.34 0 0 1 6.171 7.101c4.395 5.563 8.546 11.778 10.654 18.606.903 2.92 1.834 6.799-.014 9.545-1.808 2.684-5.45 3.436-8.478 3.436zM82.947 203.31c0-3.858 4.192-4.254 7.004-3.17 3.23 1.244 5.698 4.054 7.639 6.82 2.095 2.989 3.752 6.284 5.138 9.653 1.418 3.449 2.64 7.062 3.263 10.744-5.224-2.391-9.995-6.072-14.16-9.99-2.063-1.942-4.021-4.035-5.68-6.34-1.594-2.214-3.204-4.901-3.204-7.717zm0-79.918c0-3.86 4.192-4.254 7.004-3.171 3.231 1.246 5.698 4.052 7.639 6.82 2.095 2.99 3.752 6.284 5.138 9.655 1.418 3.448 2.64 7.06 3.263 10.744-5.224-2.391-9.995-6.072-14.16-9.99-2.063-1.943-4.021-4.034-5.68-6.34-1.594-2.214-3.204-4.903-3.204-7.718zM60.335 157.663c2.641 0 4.754-1.928 4.754-4.609s-2.114-4.607-4.754-4.607c-2.532 0-4.752 2.031-4.752 4.607s2.219 4.609 4.752 4.609zM210.047 550.713c-3.178 0-4.449 3.039-3.602 5.799.824 2.686 3.324 4.846 6.199 4.846 3.205 0 4.451-3.032 3.602-5.819-.82-2.695-3.324-4.826-6.199-4.826zm3.713 9.16c-2.33 0-5.027-1.496-6.379-3.369-1.191-1.646-.881-4.308 1.553-4.308 2.33 0 5.029 1.496 6.379 3.369 1.179 1.627.875 4.308-1.553 4.308zM230.223 457.603c2.646 0 2.646-3.961 0-3.961-2.625 0-2.625 3.961 0 3.961z"/>
    <path d="M260.982 445.724c-.369-2.766-1.689-5.508-3.053-7.906a34.866 34.866 0 0 0-5.65-7.397c2.918 1.18 7.279 1.639 8.734-1.914 1.52-3.705-.559-8.25-2.484-11.394-2.209-3.604-5.133-6.799-8.33-9.551-1.479-1.271-3.041-2.467-4.711-3.479-.602-.363-.545-.297-.846.18 5.168 3.117 9.729 7.666 12.969 12.748 1.408 2.207 3.084 5.107 2.865 7.832-.264 3.249-4.693 2.938-6.922 2.372a14.035 14.035 0 0 1-2.066-.701 12.384 12.384 0 0 1-.965-.465 29.134 29.134 0 0 0-.211-.92 44.456 44.456 0 0 0-1.365-4.508c-.996-2.779-2.215-5.711-4.164-7.975-.764-.883-1.807-1.824-3.049-1.824-1.336 0-2.193.967-2.439 2.221-.563 2.869.941 6.004 2.461 8.336a24.572 24.572 0 0 0 2.631 3.352c-.033.027-.082.045-.113.076 1.316.762 2.342 2.131 3.572 3.055.82.619 1.686 1.188 2.588 1.685 1.004.553 1.867 1.719 2.627 2.567 3.336 3.734 6.141 8.228 7.18 13.179-6.797-4.697-13.895-8.953-20.547-13.863v3.014c0 .256-.119 1.181.07 1.301.488.318.98.642 1.473.957.26.173 2.121 1.197 1.984 1.451-.041.078-1.117.15-1.299.205a3.642 3.642 0 0 0-1.336.728c-.969.84-1.336 2.135-1.383 3.379-.105 2.887 1.361 5.729 2.943 8.053a26.984 26.984 0 0 0 6.104 6.385 20.415 20.415 0 0 0 3.543 2.154c.645.301 1.309.561 1.986.762a60.281 60.281 0 0 1 1.889 1.965c1.881 2.054 3.99 4.423 4.842 7.129.279.896.504 2.259-.689 2.552-1.063.26-2.115-.22-3.041-.699-1.912-.992-3.689-2.252-5.467-3.469-3.895-2.664-7.74-5.394-11.621-8.076v3.885c0 .262 1.139.834 1.381.996 1.234.82 2.463 1.65 3.689 2.48 4.875 3.301 9.553 6.913 13.213 11.588.867 1.106 4.578 6.153 1.873 7.012-1.219.385-2.637-.34-3.689-.883-1.219-.629-2.389-1.354-3.547-2.084-4.824-3.037-9.523-6.271-14.26-9.441a3817.302 3817.302 0 0 0-20.445-13.619V463.137c0 .567.52.674.98.963l2.213 1.395a957.15 957.15 0 0 1 15.146 9.771c4.834 3.18 9.59 6.508 14.531 9.52 2.439 1.484 4.424 4.291 6.043 6.609 1.613 2.309 3.221 4.982 3.605 7.824.484 3.629-3.111 4.272-5.969 3.756a13.36 13.36 0 0 1-3.934-1.363 40.865 40.865 0 0 0-1.201-4.342c-.961-2.896-2.145-5.861-3.963-8.334-1.219-1.656-4.381-4.143-5.783-1.205-1.199 2.486.26 5.898 1.496 8.09.979 1.732 2.297 3.531 3.637 4.908 1.307 1.34 2.889 2.6 4.477 3.619 1.15.74 2.309 1.285 3.352 2.184a46.136 46.136 0 0 1 3.324 3.144c1.568 1.645 3.166 3.41 4.18 5.463.418.844.992 2.191.586 3.137-.434 1.006-1.68.828-2.516.564-2.131-.683-4.123-1.914-6.033-3.049-2.254-1.343-4.459-2.759-6.65-4.189-9.135-5.971-18.029-12.297-27.271-18.102v3.143c0 .447-.145.852.252 1.1l1.902 1.195c1.691 1.063 3.387 2.125 5.078 3.188 3.832 2.403 7.664 4.811 11.494 7.215 1.732 1.09 3.469 2.178 5.201 3.268.488.31.979.611 1.467.918.393.248-.813.261-.875.271-2.76.424-3.781 2.998-3.363 5.518.486 2.933 2.195 5.625 4.031 7.9 1.854 2.295 4.053 4.35 6.514 5.979.604.398 1.227.771 1.867 1.109.563.295 1.293.484 1.76.912.984.918 1.955 1.848 2.875 2.832 1.838 1.969 3.855 4.313 4.297 7.063.117.73.221 1.728-.369 2.297-.639.621-1.652.462-2.393.16-1.785-.727-3.369-2.022-4.896-3.176-1.736-1.309-3.447-2.66-5.256-3.879-1.494-1.01-3.381-2.359-5.281-2.193-2.076.185-3.262 1.904-3.262 3.881 0 2.107 1.051 4.076 2.246 5.748 2.625 3.67 6.266 6.484 9.697 9.355-.221.277-2.021-1.246-2.398-1.521-1.035-.748-2.07-1.493-3.105-2.239-1.982-1.431-3.963-2.857-5.943-4.287.047 1.031.094 2.063.143 3.096.014.283.025.566.039.85.014.271 1.252.836 1.51.994 1.313.812 2.611 1.642 3.91 2.478 2.482 1.598 5.035 3.09 7.211 5.096 2.158 1.996 4.313 4.113 5.965 6.562 1.234 1.831 2.678 5.176-.027 6.508-2.273 1.119-5.512.455-7.857-.06-6.182-1.35-12.064-4.201-17.516-7.346-5.328-3.072-10.568-6.619-14.953-10.959-.229-.23-.863-1.299-1.197-.793a27.648 27.648 0 0 0 1.754 4.611c1.344 2.795 3.07 5.395 4.98 7.831 3.83 4.886 8.395 9.164 13.145 13.142 4.666 3.906 9.512 7.565 13.84 11.863 2.936 2.911 5.789 6.077 7.768 9.733.92 1.699 1.664 3.56 1.814 5.502.109 1.478-.01 3.377-1.396 4.256-.59-2.33-4.295-.987-4.072 1.199.266 2.609 3.729 2.469 5.188 1.006 1.805-1.813 1.787-5.143 1.285-7.465-.654-3.021-2.313-5.766-4.137-8.219-3.727-5.008-8.48-9.236-13.295-13.164-.582-.478-1.168-.943-1.758-1.41-.393-.311-.293-.467-.293-.957v-7.756c2.953 1.146 5.945 2.254 9.07 2.826 2.787.51 6.258.887 8.689-.9 2.633-1.934 2.254-5.479.869-8.051-1.545-2.871-3.979-5.246-6.373-7.414a281.989 281.989 0 0 0 6.99 4.391v-3.76c0-.205-1.121-.658-1.33-.774a53.006 53.006 0 0 1-3.777-2.359c-4.977-3.369-10.063-7.295-13.682-12.146-.809-1.081-1.564-2.262-1.984-3.557-.377-1.164-.547-3.334 1.217-3.334 1.295 0 2.547.797 3.59 1.49 1.299.863 2.512 1.852 3.725 2.83 2.258 1.815 4.627 3.992 7.424 4.924 2.313.77 4.668-.225 5.197-2.713.984-4.615-3.787-9.025-6.771-11.84 1.885.518 4.008.594 5.527-.842 1.623-1.531 1.609-4.003.889-5.966-.793-2.149-2.344-3.957-3.941-5.559-.41-.412-2.971-2.375-2.824-2.808 1.59.888 3.932 2.169 5.729 1.115 1.969-1.153 1.709-4.17.961-5.959-1.525-3.641-4.738-6.559-7.656-9.115 1.955.623 4.33.912 6.141-.271 2.01-1.322 2.262-3.965 1.965-6.146-.705-5.187-4.258-9.843-7.758-13.525 1.719.863 4.037 1.859 5.98 1.156 2.236-.808 2.125-3.787 1.443-5.613-1.447-3.871-4.949-7.146-7.953-9.865 1.563.922 3.273 1.851 5.127 1.941 1.951.094 3.264-1.359 3.264-3.273 0-1.932-1.053-3.793-2.094-5.354-1.268-1.906-2.795-3.64-4.396-5.271 3.58.646 6.957-1.274 6.428-5.287-.535-4.041-3.941-7.246-6.869-9.768.295-.271.855.396 1.137.588 1.252.867 2.52 1.711 3.777 2.563 2.6 1.765 5.174 3.566 7.629 5.523 4.561 3.635 9.666 8.244 11.041 14.164.627 2.693.484 6.289-1.488 8.436-1.814 1.974-5.301 2.224-7.625 1.054-1.191-.599-1.982-1.672-2.238-2.979-.057-.299.053-1.444-.164-1.623-.51-.422-.604.849-.633 1.063-.154 1.377.072 2.813.68 4.059 1.986 4.09 7.436 4.592 10.207 1.047 2.846-3.637 2.754-9.123 1.563-13.354-1.297-4.617-4.164-8.631-7.533-11.979-1.701-1.688-3.547-3.227-5.469-4.655a89.737 89.737 0 0 0-2.586-1.841c-.595-.409-1.48-.818-1.881-1.4-.035-.261.1.147 0 0zm-21.043-30.321c0-1.641 1.783-1.822 2.984-1.373 1.479.559 2.59 1.875 3.449 3.148 1.693 2.502 2.965 5.574 3.469 8.561-2.135-.975-4.084-2.459-5.809-4.033-1.675-1.537-4.093-3.836-4.093-6.303zm1.053 168.42c-4.75-3.706-9.352-7.647-13.455-12.069-1.914-2.063-3.717-4.236-5.322-6.549-.385-.556-3.432-4.937-2.945-5.271 5.793 6.062 12.668 11.031 20.141 14.814.521.266 1.584.479 1.584 1.106v3.493c-.003 1.495-.003 2.987-.003 4.476zm19-54.01c0 2.303-2.586 2.486-4.32 2.158-2.355-.443-4.574-1.648-6.57-2.934-2.086-1.347-4.049-2.918-5.76-4.722-1.498-1.58-3.4-3.768-3.4-6.08 0-2.5 2.479-3.084 4.563-2.698 2.371.436 4.586 1.922 6.496 3.315a36.379 36.379 0 0 1 5.621 5.043c1.37 1.529 3.37 3.728 3.37 5.918zm-20.053-38.86c0-1.644 1.783-1.824 2.984-1.373 1.479.557 2.59 1.877 3.449 3.146 1.693 2.502 2.965 5.576 3.469 8.563-2.135-.978-4.082-2.459-5.809-4.035-1.675-1.533-4.093-3.836-4.093-6.301zm20.053-36.936c0 2.338-2.563 2.688-4.354 2.443-2.527-.344-4.934-1.463-7.082-2.799-2.049-1.273-3.957-2.822-5.563-4.632-1.52-1.704-3.252-4.065-3.039-6.487.445-5.074 9.105-.604 11.146.748a28.636 28.636 0 0 1 5.529 4.801c1.342 1.51 3.363 3.763 3.363 5.926zM242.848 379.64c1.158 0 2.393.383 3.402.929 0-2.236-1.496-4.418-3.955-3.793-2.236.565-3.031 3.11-3.094 5.157-.063 2.09.57 4.315 2.145 5.771 1.654 1.531 3.871 1.651 5.928.979 2.078-.678 4.029-1.762 6.205-2.129 2.354-.396 5.229.315 6.557 2.453 1.139 1.825.869 4.551-.375 6.26-1.158 1.592-4.631 2.646-5.795.465 1.613-.404 1.736-2.596.176-3.178-1.172-.438-2.49-.021-2.77 1.285-.867 4.039 4.273 5.42 7.094 3.834 3.746-2.109 3.439-7.399 2.563-10.972-1.08-4.375-3.652-8.215-6.736-11.438 1.736.5 3.779.699 5.418-.221 1.746-.979 2.143-3.07 1.688-4.895-.502-2.007-1.736-3.813-3.012-5.408-.277-.351-3.189-3.668-3.271-3.603.15-.125.85.252 1.078.33.619.219 1.26.396 1.918.453 2.014.176 3.363-1.188 3.465-3.158.1-2.002-.963-3.903-2.074-5.494-1.291-1.842-2.859-3.487-4.494-5.026a256.393 256.393 0 0 0 6.08 3.805v-3.762c0-.205-1.121-.658-1.328-.775a52.714 52.714 0 0 1-3.779-2.361c-4.975-3.369-10.064-7.293-13.682-12.143-.807-1.084-1.564-2.262-1.984-3.559-.377-1.162-.547-3.332 1.217-3.332 1.297 0 2.549.797 3.59 1.49 1.299.862 2.512 1.852 3.727 2.829 2.258 1.816 4.625 3.99 7.422 4.923 2.313.77 4.668-.226 5.199-2.714.973-4.555-3.686-8.916-6.635-11.704 1.59.325 3.242.358 4.688-.492 1.691-.996 2.248-2.871 2-4.734-.533-4.039-3.938-7.252-6.867-9.768.293-.277.855.395 1.137.588 1.252.865 2.52 1.709 3.777 2.563 2.6 1.763 5.174 3.563 7.629 5.522 4.561 3.634 9.666 8.242 11.041 14.162.627 2.697.482 6.287-1.488 8.438-1.814 1.976-5.301 2.222-7.625 1.054-1.191-.599-1.982-1.673-2.238-2.979-.057-.3.051-1.445-.164-1.623-.51-.423-.604.848-.633 1.063-.154 1.375.072 2.813.678 4.059 1.166 2.396 3.74 3.836 6.398 3.406 2.727-.439 4.502-2.808 5.346-5.277 1.918-5.615.229-11.943-2.885-16.783-3.205-4.984-7.844-8.799-12.676-12.129-.73-.502-1.76-.926-1.936-1.832-.26-1.357-.729-2.682-1.258-3.955-1.131-2.725-2.658-5.283-4.469-7.609a35.466 35.466 0 0 0-2.906-3.293c1.93.781 4.234 1.285 6.252.527 2.564-.971 3.146-3.779 2.887-6.232-.574-5.442-4.385-10.344-8.061-14.157 2.543 1.598 5.078 3.206 7.629 4.793v-2.593c0-.315.154-1.168 0-1.432a32.8 32.8 0 0 1-3.217-1.537c-4.379-2.383-7.971-5.932-11.361-9.541-1.646-1.756-3.232-3.588-4.617-5.563-.428-.607.242-.207.547-.089 1.16.459 2.49.523 3.689.175 2.186-.636 3.189-2.759 2.902-4.923-.35-2.639-2.307-4.69-4.035-6.557-.219.199-.252.367-.074.568.605.686 1.213 1.371 1.756 2.107.957 1.299 2.213 3.367 1.457 5.031-.771 1.698-3.039 1.715-4.564 1.239-1.605-.504-2.969-1.584-4.145-2.76-.104 1.254-.576 3.327.689 4.145.785.511 1.197 1.253 1.766 2.005.58.772 1.186 1.526 1.803 2.27 2.338 2.803 4.873 5.531 7.689 7.859-.225.289-2.041-1.189-2.424-1.453l-3.143-2.156a10746.24 10746.24 0 0 0-6.01-4.127V262.621c0 .256 1.15.824 1.389.979 1.197.779 2.396 1.558 3.6 2.332 2.244 1.447 4.895 2.736 6.814 4.595 2.156 2.086 4.131 4.383 5.791 6.885 1.506 2.266 3.057 4.959 3.193 7.74.18 3.594-4.162 3.606-6.668 3.024a14.053 14.053 0 0 1-2.981-1.067c-.408-.203-.346-.345-.441-.767a43.653 43.653 0 0 0-1.314-4.459c-.984-2.822-2.191-5.767-4.1-8.104-.963-1.182-2.428-2.479-4.072-1.928-1.674.561-1.814 2.648-1.648 4.127.408 3.658 2.684 7.012 5.131 9.65-.033.027-.084.043-.113.074 1.316.762 2.342 2.131 3.57 3.055.82.619 1.686 1.188 2.588 1.684 1.004.553 1.867 1.719 2.627 2.568 3.34 3.734 6.137 8.227 7.182 13.178-6.797-4.697-13.895-8.953-20.547-13.863V296.541c0 .22 1.113.777 1.322.914.314.203 2.268 1.228 2.205 1.546 0-.003-1.943.493-2.225.672-1.076.687-1.605 1.891-1.75 3.123-.326 2.809.996 5.639 2.463 7.948 1.57 2.478 3.584 4.695 5.869 6.531a22.114 22.114 0 0 0 3.404 2.271c.637.338 1.293.641 1.969.891.652.242.99.533 1.49 1.009 1.965 1.893 3.963 3.93 5.268 6.354.645 1.201 2.059 4.602.033 5.264-1.729.566-3.773-1.178-5.074-2.104-1.855-1.326-3.635-2.756-5.48-4.096-1.658-1.203-3.502-2.627-5.529-3.119-2.086-.506-4.037.832-4.391 2.914-.355 2.141.617 4.283 1.766 6.028 2.611 3.97 6.506 6.938 10.107 9.949-.219.278-2.021-1.246-2.396-1.519l-3.107-2.239c-1.98-1.431-3.961-2.857-5.943-4.287.047.979.09 1.959.135 2.938.014.221.021.438.031.659.027.572.326.607.814.904 1.158.707 2.311 1.43 3.453 2.162 2.443 1.562 4.865 3.153 7.299 4.733 2.352 1.529 4.393 3.806 6.176 5.955 1.293 1.562 3.729 4.344 3.041 6.58-.754 2.445-5.207-.336-6.367-.996-5.086-2.896-9.814-6.44-14.582-9.824v3.097c0 .687-.094.877.529 1.226.508.282 1.018.567 1.523.854.457.256.914.51 1.369.766.59.33-.193.34-.555.461-2.627.889-3.674 3.465-3.277 6.086.445 2.934 2.279 5.592 4.209 7.762 2.039 2.293 4.471 4.3 7.158 5.783.596.33 1.207.633 1.832.9.689.291 1.068.709 1.576 1.256a33.421 33.421 0 0 1 2.861 3.521c1.625 2.315 2.924 4.887 3.584 7.646.094.396.619 1.83.229 2.104-.459-2.405-2.318-4.698-4.578-5.646-2.695-1.129-5.607.222-8.053 1.367-2.178 1.017-5.76 2.313-7.527-.129-1.484-2.012-.381-5.116 2.266-5.116zm-2.909-103.332c0-1.642 1.781-1.825 2.984-1.373 1.479.558 2.59 1.875 3.449 3.147 1.693 2.503 2.965 5.572 3.469 8.56-2.135-.976-4.082-2.459-5.809-4.034-1.675-1.534-4.093-3.836-4.093-6.3zm0 27.473c0-5.394 8.768-1.123 10.871.227a28.358 28.358 0 0 1 5.584 4.73c1.436 1.567 3.367 3.729 3.586 5.948.229 2.302-2.209 2.906-4.008 2.72-2.527-.265-4.949-1.351-7.105-2.648-2.063-1.242-3.982-2.766-5.619-4.537-1.58-1.714-3.309-3.993-3.309-6.44zm0 54.881c0-2.448 2.307-2.979 4.305-2.674 2.375.361 4.611 1.469 6.611 2.765a29.045 29.045 0 0 1 5.637 4.78c1.457 1.593 3.5 3.904 3.5 6.207 0 2.293-2.727 2.353-4.387 2.133-2.35-.309-4.596-1.262-6.629-2.448a25.441 25.441 0 0 1-5.59-4.402c-1.575-1.656-3.447-3.945-3.447-6.361z"/>
  </g>
</svg>
