<svg width="256" height="256" viewBox="0 0 256 256" fill="none" xmlns="http://www.w3.org/2000/svg">
<path d="M161.333 172.237V126.65L211.828 112.363C221.395 109.656 228 100.923 228 90.9801V76.8401C228 76.073 227.378 75.4512 226.611 75.4512H161.333V75.4579H94.6667V75.4512H29.3889C28.6218 75.4512 28 76.073 28 76.8401V90.9801C28 100.923 34.6048 109.656 44.1722 112.363L94.6667 126.65L104.778 129.513C113.125 131.817 120.903 135.434 127.854 140.13C148.09 153.772 161.333 176.488 161.333 202.202V172.237Z" fill="url(#paint0_linear)"/>
<path d="M159.944 0H96.0554C95.2883 0 94.6665 0.621827 94.6665 1.38889V31.3387C94.6665 49.7481 109.59 64.672 128 64.672C146.409 64.672 161.333 49.7481 161.333 31.3387V1.38889C161.333 0.621827 160.711 0 159.944 0Z" fill="#CAA970"/>
<path d="M161.333 202.2C161.333 176.486 148.09 153.77 127.854 140.128C120.903 135.433 113.125 131.815 104.778 129.512L94.6665 126.648V203.151C94.6665 204.228 94.9791 205.281 95.5663 206.183L126.836 254.211C127.384 255.053 128.616 255.053 129.164 254.211L160.433 206.183C161.021 205.281 161.333 204.228 161.333 203.151V202.2Z" fill="url(#paint1_linear)"/>
<defs>
<linearGradient id="paint0_linear" x1="208.556" y1="155.954" x2="17.3677" y2="71.2363" gradientUnits="userSpaceOnUse">
<stop stop-color="#EACD9C"/>
<stop offset="1" stop-color="#CCAB73"/>
</linearGradient>
<linearGradient id="paint1_linear" x1="128" y1="126.648" x2="128" y2="255.999" gradientUnits="userSpaceOnUse">
<stop stop-color="#B38D4B"/>
<stop offset="1" stop-color="#CCAB73"/>
</linearGradient>
</defs>
</svg>
